<?xml version="1.0" encoding="UTF-8" standalone="no"?>
<svg
   width="514"
   height="334"
   version="1.1"
   id="svg355"
   sodipodi:docname="Wakacyjna_przygoda.svg"
   inkscape:version="1.3.2 (091e20e, 2023-11-25, custom)"
   inkscape:export-filename="icon.png"
   inkscape:export-xdpi="180.37431"
   inkscape:export-ydpi="180.37431"
   xmlns:inkscape="http://www.inkscape.org/namespaces/inkscape"
   xmlns:sodipodi="http://sodipodi.sourceforge.net/DTD/sodipodi-0.dtd"
   xmlns="http://www.w3.org/2000/svg"
   xmlns:svg="http://www.w3.org/2000/svg">
  <defs
     id="defs355" />
  <sodipodi:namedview
     id="namedview355"
     pagecolor="#ffffff"
     bordercolor="#000000"
     borderopacity="0.25"
     inkscape:showpageshadow="2"
     inkscape:pageopacity="0.0"
     inkscape:pagecheckerboard="0"
     inkscape:deskcolor="#d1d1d1"
     inkscape:zoom="1.4142136"
     inkscape:cx="155.91704"
     inkscape:cy="155.20993"
     inkscape:window-width="1920"
     inkscape:window-height="1017"
     inkscape:window-x="-8"
     inkscape:window-y="-8"
     inkscape:window-maximized="1"
     inkscape:current-layer="svg355" />
  <path
     id="path2"
     style="fill:#fdc10a; stroke:none;"
     d="M 482.25195 0.90820312 C 480.46442 0.87810384 478.36937 1.8596006 477 2.4296875 C 470.63501 5.0799148 464.70099 8.8288288 459 12.671875 C 439.18702 26.026862 416.214 50.508925 416 76 C 423.37199 73.753502 428.37816 64.592694 433.28516 59 C 440.00915 51.338308 448.21401 44.995623 457 39.861328 C 462.94299 36.388532 472.654 34.235894 476 28 C 473.271 27.189801 470.85 27.0208 468 27 C 472.145 20.937806 477.30325 15.612094 482.03125 10 C 483.64925 8.0794419 486.54906 5.1066954 484.91406 2.3613281 C 484.28669 1.3086689 483.32448 0.9262627 482.25195 0.90820312 z M 426.11133 1.8320312 C 424.40296 1.8791598 422.47714 3.0210955 421.17383 4.1523438 C 419.93483 5.2269827 418.89436 6.6711451 417.94336 7.9960938 C 416.55436 9.9306718 415.74 11.768802 415 14 C 414.364 13.231401 413.46178 11.807481 412.55078 11.175781 C 404.25379 5.422277 403.98209 21.463505 403.24609 26 C 401.3121 37.927088 400.26922 50.014712 402.32422 62 C 403.00522 65.974496 404.28141 71.41246 406.44141 74.847656 C 407.28641 76.190455 409.46449 78.302189 410.89648 76.337891 C 412.97748 73.484793 409.69216 65.308497 409.28516 62 C 408.75816 57.710504 409 53.313696 409 49 C 409 42.615606 409.982 36.370894 410 30 C 417.95399 34.023796 418.862 26.105094 420 20 C 420.881 22.021398 421.496 23.854102 422 26 C 428.77399 24.827501 428.242 16.613994 429 11 C 429.28 8.9279221 430.06164 6.2679736 429.30664 4.2285156 C 428.63727 2.4199033 427.44006 1.7953757 426.11133 1.8320312 z M 479.67773 53.664062 C 464.56593 53.639411 448.84561 56.767992 436 64.232422 C 428.68701 68.481718 421.165 75.238009 420 84 L 424 84 C 424.164 86.106698 424.12036 88.330539 426.31836 89.398438 C 428.52236 90.469636 431.61 90.065153 434 90.439453 C 440.31699 91.429052 451.54574 96.464181 457.67773 93.396484 C 462.08373 91.192887 457.26 87.268999 455 86 C 461.22799 82.659003 468.21915 83.610196 474.99414 82.404297 C 480.52814 81.419398 481.31437 78.444434 476.98438 74.648438 C 475.81638 73.624139 474.299 72.828299 473 72 C 483.02699 68.737203 491.67801 67.933343 502 66.714844 C 504.527 66.416544 510.31106 66.744107 511.91406 64.412109 C 513.82806 61.627912 510.01447 59.549737 507.98047 58.710938 C 502.30347 56.37064 496.11299 54.761421 490 54.169922 C 486.62032 53.842866 483.16507 53.669751 479.67773 53.664062 z M 469.82812 63.005859 C 471.63537 63.037894 473.38781 63.323688 475 64 C 470.305 65.355599 466.466 68.149102 462 70 C 464.32 72.867697 467.404 74.445603 470 77 C 463.55501 77.0007 457.14095 77.34613 451.00195 79.548828 C 448.17996 80.561427 445.62584 82.76131 442.71484 83.412109 C 439.83285 84.056009 436.832 82.690581 434 82.300781 C 430.579 81.830082 427.356 82.377001 424 83 C 430.30899 70.940612 445.96801 68.044303 458 65.003906 C 461.60937 64.091732 465.85218 62.935382 469.82812 63.005859 z " />
  <path
     id="path4"
     style="fill:#fdc10a; stroke:none;"
     d="M 379.70898 77.041016 C 358.13052 77.048992 337.74212 94.167831 328.89062 113 C 325.57563 120.05199 323.96095 127.22201 324.00195 135 C 324.01495 137.543 323.76385 143.32605 327.96484 142.24805 C 331.10884 141.44205 332.86183 137.496 334.42383 135 C 337.80682 129.59301 340.88501 123.924 346 120 C 346.111 121.35 346.13342 122.71806 346.48242 124.03906 C 347.70042 128.65406 351.46221 131.43856 355.0332 126.85156 C 358.5852 122.28957 361.41 115.51899 363 110 L 365 110 C 366.236 113.188 368.04275 121.49913 372.09375 122.07812 C 375.97275 122.63212 379.67286 115.4729 381.75586 113.00391 C 389.29485 104.06592 399.38201 97.489694 409 91 C 405.273 83.075008 397.03899 80.054857 389 78.130859 C 385.899 77.388723 382.79162 77.039876 379.70898 77.041016 z M 414.99023 90.654297 C 413.59198 90.673929 412.14703 91.475266 411.00391 92.322266 C 406.95491 95.321863 403.83729 99.883704 401.0293 104 C 392.38331 116.67199 386.031 131.51302 386 147 C 385.994 150.104 384.22805 156.96489 386.62305 159.33789 C 388.80404 161.49889 390.76533 158.8214 391.61133 156.94141 C 393.85033 151.96541 395.565 146.25799 397 141 C 398.388 143.196 400.64194 149.60412 403.96094 149.07812 C 407.58993 148.50213 407.87467 141.739 408.38867 139 C 410.39167 128.31401 412.39492 117.47799 415.29492 107 C 416.30592 103.347 420.70781 94.853444 417.38281 91.623047 C 416.65156 90.912385 415.82918 90.642518 414.99023 90.654297 z M 403 114 C 405.13 119.93899 402.95799 129.458 396 130 C 397.569 124.30601 400.573 119.34099 403 114 z " />
  <path
     style="fill:#0bacc1; stroke:none;"
     d="M147 109C149.756 113.843 154.822 114.525 160 115.271C171.643 116.949 181.71 112.809 192 107.756C196.258 105.665 202.334 104.787 204 100C193.572 100.852 185.078 107.078 175 109.335C165.069 111.559 156.868 109.424 147 109M138 123C142.59 131.834 157.874 134.316 167 133.96C193.665 132.919 214.733 112.427 241 109.156C249.599 108.085 258.324 107.495 267 108.09C273.733 108.551 280.379 109.957 287 108L287 106C265.256 96.3757 235.217 101.313 214 110.284C202.65 115.083 192.063 122.82 180 125.761C172.034 127.703 164.049 128.172 156 126.486C150.062 125.242 144.068 121.736 138 123z"
     id="path5" />
  <path
     id="path6"
     style="fill:#fdc10a; stroke:none;"
     d="M 440 105 C 439.228 110.43697 443.63002 114.01 446.91602 118 C 453.35599 125.81897 458.70903 134.38603 464 143 C 458.03103 143.754 452.01297 144.742 446 145 C 444.238 134.76403 437.8048 123.87997 432.54883 115 C 431.78083 113.702 425.45159 102.84192 423.80859 108.33789 C 423.17859 110.44689 424.64778 113.115 425.42578 115 C 427.48778 119.997 429.66522 124.93903 431.57422 130 C 437.44719 145.57294 441.56094 162.50006 443.71094 179 C 446.45391 200.06094 445.64705 222.13106 441.83008 243 C 440.46708 250.45497 437.94435 257.72503 435.85938 265 C 434.96138 268.132 433.21815 271.68 433.57812 275 C 434.09012 279.72 438.31398 283.41651 442.00195 285.89648 C 450.82592 291.83048 460.53003 294 471 294 C 475.734 294 481.80525 294.73944 485.15625 290.60547 C 487.80525 287.33847 489.0703 281.968 490.2793 278 C 493.24127 268.28403 495.15892 259.10697 496.16992 249 C 500.10792 209.61812 489.86503 168.06891 467.99609 135 C 461.06712 124.52203 451.74397 110.37997 440 105 z M 467 148 C 473.10297 158.72397 478.988 172.61103 480 185 L 464 185 C 461.757 184.995 458.50149 185.46463 456.60352 183.97266 C 454.37252 182.21966 454.49 177.565 454 175 C 452.367 166.45703 450.244 158.39497 448 150 C 454.79797 151.258 460.47503 150.073 467 148 z M 482 190 C 484.958 205.25096 487 220.45504 487 236 C 476.41502 235.158 466.44198 231.406 456 230 L 457 191 C 465.84698 192.118 473.30502 191.988 482 190 z M 454 236 C 465.15499 237.896 475.48501 242.504 487 243 C 487 257.54999 484.139 271.57301 483 286 C 466.73102 288.056 453.95699 283.15399 440 275 C 442.117 269.18101 445.38122 263.82999 447.57422 258 C 450.26422 250.85001 451.932 243.34199 454 236 z " />
  <path
     style="fill:#2c2c2a; stroke:none;"
     d="M29 165C32.5247 173.353 31.7605 184.013 33.6011 193C34.4311 197.053 35.2891 202.527 39.2137 204.82C47.716 209.789 49.7751 198.553 50.5795 193C53.6412 171.866 57.2824 151.006 65 131C59.1402 129.679 57.6886 134.16 55.811 139C52.3206 147.996 48.7877 158.356 48 168L46 168C46 160.787 46.0704 152.421 41.7755 146.189C39.5661 142.983 35.0161 140.795 31.6489 143.743C28.6878 146.336 28.0331 151.392 27.1265 155C25.2691 162.392 23.322 169.738 21 177C18.8212 169.697 18.6787 161.544 17.4136 154C16.2166 146.862 16.1017 137.235 11.9946 131.059C7.46453 124.247 0.131053 127.544 0.0794753 135.001C0.045148 139.964 1.25558 145.078 1.84491 150C3.24125 161.663 4.38795 173.556 7.1304 185C8.33179 190.013 9.11327 197.946 13.3935 201.396C16.1533 203.62 20.0138 202.838 21.8248 199.852C24.6523 195.19 24.538 187.312 25.6003 182C26.7302 176.35 28.2318 170.705 29 165M116 184C119.848 187.134 123.363 190.477 126.91 193.941C128.254 195.253 129.939 197.364 132.022 197.364C136.053 197.364 134.219 191.89 133.145 190C130.142 184.718 125.5 179.565 120 177C124.796 172.41 131.223 168.313 133.91 162C134.84 159.815 135.667 154.636 131.891 154.636C129.308 154.636 127.412 157.35 125.83 159.019C122.738 162.282 119.575 165.276 116 168C116.001 157.855 118.524 148.076 118.961 138C119.087 135.086 119.751 129.807 116.686 128.086C111.759 125.321 109.013 133.815 108.039 137C104.557 148.393 104 160.197 104 172C104 179.084 104.077 185.962 104.834 193C105.114 195.605 104.962 198.501 106.318 200.852C108.334 204.347 113.465 204.813 115.258 200.852C117.338 196.255 116 188.963 116 184z"
     id="path9" />
  <path
     style="fill:#fdc10a; stroke:none;"
     d="M117 127L118 128L117 127M10 128L11 129L10 128M118 128L119 129L118 128z"
     id="path10" />
  <path
     style="fill:#2c2c2a; stroke:none;"
     d="M271.279 135.032C264.957 138.87 268.611 152.903 276.772 147.971C283.14 144.123 278.869 130.424 271.279 135.032z"
     id="path14" />
  <path
     style="fill:#fdc10a; stroke:none;"
     d="M277 134L278 135L277 134z"
     id="path15" />
  <path
     style="fill:#0bacc1; stroke:none;"
     d="M108 135L109 136L108 135M278 135L279 136L278 135z"
     id="path16" />
  <path
     style="fill:#0bacc1; stroke:none;"
     d="M56 137L57 138L56 137z"
     id="path18" />
  <path
     style="fill:#0bacc1; stroke:none;"
     d="M61 140L62 141L61 140z"
     id="path20" />
  <path
     style="fill:#fdc10a; stroke:none;"
     d="M15 141L16 142L15 141z"
     id="path21" />
  <path
     style="fill:#0bacc1; stroke:none;"
     d="M15 142L16 143L15 142M32 142L33 143L32 142z"
     id="path22" />
  <path
     style="fill:#fdc10a; stroke:none;"
     d="M54 142L55 143L54 142M106 142L107 143L106 142z"
     id="path23" />
  <path
     style="fill:#fdc10a; stroke:none;"
     d="M30 144L31 145L30 144M60 144L61 145L60 144z"
     id="path25" />
  <path
     style="fill:#0bacc1; stroke:none;"
     d="M41 145L42 146L41 145z"
     id="path26" />
  <path
     style="fill:#fdc10a; stroke:none;"
     d="M59 147L60 148L59 147M105 147L106 148L105 147z"
     id="path29" />
  <path
     style="fill:#0bacc1; stroke:none;"
     d="M16 148L17 149L16 148z"
     id="path30" />
  <path
     style="fill:#fdc10a; stroke:none;"
     d="M52 148L53 149L52 148z"
     id="path31" />
  <path
     style="fill:#0bacc1; stroke:none;"
     d="M105 148L106 149L105 148z"
     id="path32" />
  <path
     style="fill:#fdc10a; stroke:none;"
     d="M277 148L278 149L277 148z"
     id="path33" />
  <path
     style="fill:#fdc10a; stroke:none;"
     d="M28 149L29 150L28 149z"
     id="path35" />
  <path
     style="fill:#0bacc1; stroke:none;"
     d="M44 152L45 153L44 152M51 152L52 153L51 152M79 152L80 153L79 152z"
     id="path40" />
  <path
     id="path41"
     style="fill:#2c2c2a; stroke:none;"
     d="M 94.900391 152.23438 C 93.149321 152.13819 91.291045 152.75559 89.576172 152.68359 C 85.483476 152.51059 81.994896 151.55852 78 153.22852 C 66.388812 158.08451 56.071754 176.45001 57.189453 189 C 57.769953 195.51799 63.282263 201.66281 69.910156 197.25781 C 73.824552 194.65582 76.440003 189.823 79 186 C 81.603797 182.112 84.143302 178.303 86 174 C 87.779298 181.04299 85.11762 188.6711 86.824219 195.99609 C 87.565618 199.17809 89.686795 203.52344 93.775391 202.14844 C 97.990686 200.73144 96.847522 194.373 97.169922 191 C 98.082321 181.45001 100.00789 171.59499 99.992188 162 C 99.986988 158.895 99.996118 154.11509 96.607422 152.62109 C 96.057147 152.37859 95.484081 152.26644 94.900391 152.23438 z M 84 162 C 84.956099 168.58899 74.855395 179.99 70 184 C 72.975997 175.26001 77.521606 168.53299 84 162 z " />
  <path
     style="fill:#fdc10a; stroke:none;"
     d="M88 152L89 153L88 152M161 152L162 153L161 152z"
     id="path42" />
  <path
     id="path43"
     style="fill:#2c2c2a; stroke:none;"
     d="M 176.67578 152.24609 C 174.98819 152.24492 173.21055 152.75234 171.57617 152.68359 C 167.40718 152.50759 164.027 151.58097 160 153.41797 C 149.27701 158.31196 140.59906 173.40101 140.03906 185 C 139.87006 188.494 139.56419 192.87557 141.74219 195.85156 C 144.95818 200.24356 150.35725 198.92748 153.90625 195.77148 C 159.79224 190.53549 165.309 181.35099 168 174 C 169.703 179.75999 168.92091 186.03201 169.00391 192 C 169.06591 196.439 173.83065 207.85548 178.68164 199.77148 C 180.97064 195.95749 179.91163 190.238 180.01562 186 C 180.19562 178.65201 181.80738 171.34799 181.98438 164 C 182.06437 160.691 182.7754 155.17825 179.56641 153.03125 C 178.66828 152.4305 177.68834 152.2468 176.67578 152.24609 z M 168 162 C 163.931 169.64399 158.91199 178.66601 152 184 C 155.257 175.60501 159.42401 166.01 168 162 z " />
  <path
     style="fill:#0bacc1; stroke:none;"
     d="M170 152L171 153L170 152z"
     id="path44" />
  <path
     id="path45"
     style="fill:#2c2c2a; stroke:none;"
     d="M 352.97461 152.11914 C 351.66745 152.10648 350.35187 152.24638 349 152.70312 C 336.69201 156.86112 325.4006 177.22901 327.30859 190 C 327.50459 191.317 327.79059 192.79747 328.43359 193.98047 C 335.02059 206.11146 344.8391 192.27399 348.99609 186 C 351.56109 182.129 354.034 178.206 356 174 C 357.942 181.06499 354.7362 188.7051 356.5332 195.99609 C 357.3172 199.17609 359.80339 203.48344 363.77539 202.14844 C 367.94139 200.74744 366.88816 194.359 367.28516 191 C 368.39516 181.62301 370.01219 171.43199 369.99219 162 C 369.98519 158.527 369.76753 154.0413 365.89453 152.6543 C 363.85353 151.9223 361.66517 152.77559 359.57617 152.68359 C 357.3093 152.58359 355.1532 152.14023 352.97461 152.11914 z M 354 162 C 354.652 168.92999 344.93 179.624 340 184 C 343.017 175.08501 347.36901 168.64999 354 162 z " />
  <path
     style="fill:#fdc10a; stroke:none;"
     d="M358 152L359 153L358 152z"
     id="path46" />
  <path
     style="fill:#0bacc1; stroke:none;"
     d="M367 152L368 153L367 152M27 153L28 154L27 153M98 153L99 154L98 153z"
     id="path47" />
  <path
     style="fill:#0bacc1; stroke:none;"
     d="M159 153L160 154L159 153M368 153L369 154L368 153z"
     id="path49" />
  <path
     style="fill:#fdc10a; stroke:none;"
     d="M50 155L51 156L50 155z"
     id="path52" />
  <path
     style="fill:#0bacc1; stroke:none;"
     d="M99 155L100 156L99 155M156 155L157 156L156 155z"
     id="path53" />
  <path
     style="fill:#fdc10a; stroke:none;"
     d="M209 155L210 156L209 155M252 155L253 156L252 155z"
     id="path56" />
  <path
     style="fill:#2c2c2a; stroke:none;"
     d="M237 182C237 176.668 237.071 171.331 236.996 166C236.962 163.581 237.122 160.47 235.258 158.608C232.539 155.89 229.305 158.343 227.97 161.059C225.666 165.744 224.735 172.837 225.174 178C225.611 183.153 226.707 189.998 231.213 193.257C239.262 199.079 246.17 187.338 248 181C249.131 184.863 248.628 188.049 248.155 192C247.274 199.369 247.533 209.779 242.39 215.728C239.067 219.572 231.593 213.527 230.623 220.059C229.796 225.624 236.126 229.622 241 229.63C246.783 229.639 251.438 225.823 254 221C255.079 224.616 254.846 228.844 257.434 231.852C264.454 240.012 274.125 231.159 276.931 224C282.767 209.109 281.66 190.591 280.17 175C279.676 169.832 280.271 163.952 277.995 159.109C276.616 156.176 273.337 154.378 270.513 156.758C266.126 160.454 267 169.906 267 175C266.999 186.77 268.242 199.34 266.572 211C265.889 215.765 265.39 220.427 262 224L263 214C260.553 214.309 259.166 214.805 257 216C261.697 201.312 263.3 184.385 261.83 169C261.395 164.448 260.403 153.4 253.104 155.801C249.692 156.923 248.283 161.027 247.001 164C244.311 170.239 242.267 177.485 237 182z"
     id="path57" />
  <path
     style="fill:#0bacc1; stroke:none;"
     d="M271 155L272 156L271 155z"
     id="path58" />
  <path
     style="fill:#fdc10a; stroke:none;"
     d="M275 155L276 156L275 155z"
     id="path59" />
  <path
     style="fill:#2c2c2a; stroke:none;"
     d="M298 182C296.298 176.187 298.078 170.017 297.996 164C297.966 161.797 298.223 158.567 296.258 157.032C290.752 152.734 287.522 162.533 286.63 166C284.451 174.458 283.322 186.48 285.789 195C288.625 204.79 296.561 204.095 299.413 194.999C300.575 191.292 301.772 187.614 303.204 184C305.069 179.292 307.598 174.868 309 170C310.818 176.15 309.625 182.66 310.09 189C310.407 193.313 311.504 199.347 314.649 202.562C317.353 205.328 321.396 204.706 322.566 200.891C323.91 196.512 322.124 191.454 322.015 187C321.821 179.061 324.223 170.832 322.316 163C319.877 152.989 312.329 154.982 307.52 162.004C305.986 164.244 304.597 166.611 303.309 169C301.077 173.142 299.24 177.465 298 182z"
     id="path61" />
  <path
     style="fill:#0bacc1; stroke:none;"
     d="M369 155L370 156L369 155z"
     id="path62" />
  <path
     style="fill:#fdc10a; stroke:none;"
     d="M45 156L46 157L45 156z"
     id="path63" />
  <path
     style="fill:#fdc10a; stroke:none;"
     d="M201 156L202 157L201 156z"
     id="path65" />
  <path
     style="fill:#2c2c2a; stroke:none;"
     d="M221 184C218.513 184.192 216.697 184.396 214.899 186.318C212.561 188.817 210.312 194.772 206.039 194.23C202.831 193.823 201.074 189.648 200.225 187C197.507 178.513 202.126 168.962 209 164C209.604 165.6 210.118 167.368 210.942 168.876C212.862 172.388 216.333 171.726 217.413 167.941C218.463 164.258 216.984 159.96 213.867 157.742C208.556 153.966 200.477 156.284 196.04 160.214C187.923 167.403 183.788 180.444 186.789 191C187.575 193.766 188.865 196.63 190.638 198.906C202.332 213.911 220.685 198.712 221 184z"
     id="path66" />
  <path
     style="fill:#fdc10a; stroke:none;"
     d="M212 156L213 157L212 156M258 156L259 157L258 156z"
     id="path67" />
  <path
     style="fill:#0bacc1; stroke:none;"
     d="M319 156L320 157L319 156z"
     id="path68" />
  <path
     style="fill:#0bacc1; stroke:none;"
     d="M56 158L57 159L56 158z"
     id="path72" />
  <path
     style="fill:#0bacc1; stroke:none;"
     d="M236 159L237 160L236 159z"
     id="path74" />
  <path
     style="fill:#fdc10a; stroke:none;"
     d="M268 159L269 160L268 159M288 159L289 160L288 159M309 159L310 160L309 159z"
     id="path75" />
  <path
     style="fill:#0bacc1; stroke:none;"
     d="M321 159L322 160L321 159z"
     id="path76" />
  <path
     style="fill:#fdc10a; stroke:none;"
     d="M123 161L124 162L123 161M134 161L135 162L134 161z"
     id="path79" />
  <path
     style="fill:#0bacc1; stroke:none;"
     d="M150 161L151 162L150 161z"
     id="path80" />
  <path
     style="fill:#fdc10a; stroke:none;"
     d="M167 161L168 162L167 161M194 161L195 162L194 161z"
     id="path81" />
  <path
     style="fill:#fdc10a; stroke:none;"
     d="M122 162L123 163L122 162M149 162L150 163L149 162z"
     id="path84" />
  <path
     style="fill:#fdc10a; stroke:none;"
     d="M217 162L218 163L217 162M287 162L288 163L287 162z"
     id="path86" />
  <path
     style="fill:#0bacc1; stroke:none;"
     d="M132 164L133 165L132 164z"
     id="path90" />
  <path
     style="fill:#fdc10a; stroke:none;"
     d="M80 165L81 166L80 165z"
     id="path93" />
  <path
     style="fill:#0bacc1; stroke:none;"
     d="M119 165L120 166L119 165M147 165L148 166L147 165M191 165L192 166L191 165z"
     id="path94" />
  <path
     style="fill:#fdc10a; stroke:none;"
     d="M226 165L227 166L226 165z"
     id="path95" />
  <path
     style="fill:#0bacc1; stroke:none;"
     d="M305 165L306 166L305 165z"
     id="path98" />
  <path
     style="fill:#fdc10a; stroke:none;"
     d="M350 165L351 166L350 165M353 165L354 166L353 165M64 166L65 167L64 166z"
     id="path99" />
  <path
     style="fill:#0bacc1; stroke:none;"
     d="M79 166L80 167L79 166M118 166L119 167L118 166M286 166L287 167L286 166z"
     id="path100" />
  <path
     style="fill:#0bacc1; stroke:none;"
     d="M82 167L83 168L82 167z"
     id="path102" />
  <path
     style="fill:#0bacc1; stroke:none;"
     d="M348 167L349 168L348 167z"
     id="path104" />
  <path
     style="fill:#0bacc1; stroke:none;"
     d="M203 168L204 169L203 168M217 168L218 169L217 168z"
     id="path106" />
  <path
     style="fill:#fdc10a; stroke:none;"
     d="M76 170L77 171L76 170z"
     id="path109" />
  <path
     style="fill:#0bacc1; stroke:none;"
     d="M80 170L81 171L80 170z"
     id="path110" />
  <path
     style="fill:#fdc10a; stroke:none;"
     d="M144 170L145 171L144 170M188 170L189 171L188 170z"
     id="path111" />
  <path
     style="fill:#0bacc1; stroke:none;"
     d="M202 170L203 171L202 170z"
     id="path112" />
  <path
     style="fill:#0bacc1; stroke:none;"
     d="M211 171L212 172L211 171M22 172L23 173L22 172M27 172L28 173L27 172M124 172L125 173L124 172z"
     id="path114" />
  <path
     style="fill:#fdc10a; stroke:none;"
     d="M143 172L144 173L143 172M157 172L158 173L157 172z"
     id="path115" />
  <path
     style="fill:#fdc10a; stroke:none;"
     d="M74 173L75 174L74 173z"
     id="path117" />
  <path
     style="fill:#0bacc1; stroke:none;"
     d="M78 173L79 174L78 173z"
     id="path118" />
  <path
     style="fill:#0bacc1; stroke:none;"
     d="M86 174L87 175L86 174z"
     id="path122" />
  <path
     style="fill:#0bacc1; stroke:none;"
     d="M356 174L357 175L356 174z"
     id="path124" />
  <path
     style="fill:#fdc10a; stroke:none;"
     d="M59 176L60 177L59 176M120 176L121 177L120 176M158 176L159 177L158 176M241 176L242 177L241 176z"
     id="path129" />
  <path
     style="fill:#0bacc1; stroke:none;"
     d="M166 177L167 178L166 177z"
     id="path132" />
  <path
     style="fill:#0bacc1; stroke:none;"
     d="M299 177L300 178L299 177z"
     id="path134" />
  <path
     style="fill:#fdc10a; stroke:none;"
     d="M342 177L343 178L342 177M345 177L346 178L345 177z"
     id="path135" />
  <path
     style="fill:#fdc10a; stroke:none;"
     d="M240 178L241 179L240 178M305 178L306 179L305 178z"
     id="path137" />
  <path
     style="fill:#fdc10a; stroke:none;"
     d="M58 179L59 180L58 179z"
     id="path139" />
  <path
     style="fill:#0bacc1; stroke:none;"
     d="M73 180L74 181L73 180z"
     id="path142" />
  <path
     style="fill:#0bacc1; stroke:none;"
     d="M239 180L240 181L239 180M304 180L305 181L304 180M343 180L344 181L343 180z"
     id="path144" />
  <path
     style="fill:#0bacc1; stroke:none;"
     d="M297 181L298 182L297 181z"
     id="path146" />
  <path
     style="fill:#fdc10a; stroke:none;"
     d="M217 183L218 184L217 183z"
     id="path149" />
  <path
     style="fill:#0bacc1; stroke:none;"
     d="M152 184L153 185L152 184z"
     id="path152" />
  <path
     style="fill:#0bacc1; stroke:none;"
     d="M161 185L162 186L161 185z"
     id="path154" />
  <path
     style="fill:#fdc10a; stroke:none;"
     d="M221 185L222 186L221 185M246 185L247 186L246 185z"
     id="path155" />
  <path
     style="fill:#fdc10a; stroke:none;"
     d="M214 186L215 187L214 186z"
     id="path157" />
  <path
     style="fill:#fdc10a; stroke:none;"
     d="M226 186L227 187L226 186z"
     id="path159" />
  <path
     style="fill:#0bacc1; stroke:none;"
     d="M348 186L349 187L348 186z"
     id="path160" />
  <path
     style="fill:#fdc10a; stroke:none;"
     d="M7 187L8 188L7 187z"
     id="path161" />
  <path
     style="fill:#0bacc1; stroke:none;"
     d="M24 187L25 188L24 187z"
     id="path162" />
  <path
     style="fill:#fdc10a; stroke:none;"
     d="M24 188L25 189L24 188z"
     id="path165" />
  <path
     style="fill:#fdc10a; stroke:none;"
     d="M121 188L122 189L121 188M159 188L160 189L159 188M200 188L201 189L200 188M213 188L214 189L213 188z"
     id="path167" />
  <path
     style="fill:#0bacc1; stroke:none;"
     d="M227 188L228 189L227 188z"
     id="path168" />
  <path
     style="fill:#fdc10a; stroke:none;"
     d="M301 188L302 189L301 188z"
     id="path169" />
  <path
     style="fill:#0bacc1; stroke:none;"
     d="M76 189L77 190L76 189z"
     id="path170" />
  <path
     style="fill:#0bacc1; stroke:none;"
     d="M8 190L9 191L8 190z"
     id="path172" />
  <path
     style="fill:#0bacc1; stroke:none;"
     d="M133 190L134 191L133 190z"
     id="path174" />
  <path
     style="fill:#fdc10a; stroke:none;"
     d="M186 190L187 191L186 190z"
     id="path175" />
  <path
     style="fill:#0bacc1; stroke:none;"
     d="M220 190L221 191L220 190z"
     id="path176" />
  <path
     style="fill:#fdc10a; stroke:none;"
     d="M228 190L229 191L228 190z"
     id="path177" />
  <path
     style="fill:#fdc10a; stroke:none;"
     d="M8 191L9 192L8 191z"
     id="path179" />
  <path
     style="fill:#0bacc1; stroke:none;"
     d="M57 191L58 192L57 191z"
     id="path180" />
  <path
     style="fill:#0bacc1; stroke:none;"
     d="M300 191L301 192L300 191M327 191L328 192L327 191M33 192L34 193L33 192z"
     id="path182" />
  <path
     style="fill:#fdc10a; stroke:none;"
     d="M57 192L58 193L57 192M74 192L75 193L74 192M202 192L203 193L202 192z"
     id="path183" />
  <path
     style="fill:#0bacc1; stroke:none;"
     d="M241 192L242 193L241 192z"
     id="path184" />
  <path
     style="fill:#fdc10a; stroke:none;"
     d="M310 192L311 193L310 192M327 192L328 193L327 192M344 192L345 193L344 192z"
     id="path185" />
  <path
     style="fill:#0bacc1; stroke:none;"
     d="M23 193L24 194L23 193z"
     id="path186" />
  <path
     style="fill:#fdc10a; stroke:none;"
     d="M33 193L34 194L33 193z"
     id="path187" />
  <path
     style="fill:#fdc10a; stroke:none;"
     d="M187 193L188 194L187 193M240 193L241 194L240 193z"
     id="path189" />
  <path
     style="fill:#0bacc1; stroke:none;"
     d="M343 193L344 194L343 193z"
     id="path190" />
  <path
     style="fill:#0bacc1; stroke:none;"
     d="M218 194L219 195L218 194z"
     id="path192" />
  <path
     style="fill:#fdc10a; stroke:none;"
     d="M232 194L233 195L232 194z"
     id="path193" />
  <path
     style="fill:#0bacc1; stroke:none;"
     d="M238 194L239 195L238 194z"
     id="path194" />
  <path
     style="fill:#fdc10a; stroke:none;"
     d="M285 194L286 195L285 194z"
     id="path195" />
  <path
     style="fill:#0bacc1; stroke:none;"
     d="M299 194L300 195L299 194z"
     id="path196" />
  <path
     style="fill:#0bacc1; stroke:none;"
     d="M129 196L130 197L129 196z"
     id="path200" />
  <path
     style="fill:#fdc10a; stroke:none;"
     d="M153 196L154 197L153 196M217 196L218 197L217 196M311 196L312 197L311 196M329 196L330 197L329 196M356 196L357 197L356 196z"
     id="path201" />
  <path
     style="fill:#0bacc1; stroke:none;"
     d="M10 197L11 198L10 197M34 197L35 198L34 197z"
     id="path202" />
  <path
     style="fill:#fdc10a; stroke:none;"
     d="M60 197L61 198L60 197M189 197L190 198L189 197z"
     id="path203" />
  <path
     style="fill:#0bacc1; stroke:none;"
     d="M286 197L287 198L286 197M330 197L331 198L330 197z"
     id="path204" />
  <path
     style="fill:#fdc10a; stroke:none;"
     d="M68 198L69 199L68 198z"
     id="path205" />
  <path
     style="fill:#0bacc1; stroke:none;"
     d="M150 198L151 199L150 198M169 198L170 199L169 198M298 198L299 199L298 198z"
     id="path206" />
  <path
     style="fill:#0bacc1; stroke:none;"
     d="M11 199L12 200L11 199z"
     id="path208" />
  <path
     style="fill:#fdc10a; stroke:none;"
     d="M22 199L23 200L22 199M87 199L88 200L87 199M105 199L106 200L105 199z"
     id="path209" />
  <path
     style="fill:#0bacc1; stroke:none;"
     d="M287 199L288 200L287 199M312 199L313 200L312 199z"
     id="path210" />
  <path
     style="fill:#fdc10a; stroke:none;"
     d="M357 199L358 200L357 199M35 200L36 201L35 200M96 200L97 201L96 200M170 200L171 201L170 200z"
     id="path211" />
  <path
     style="fill:#0bacc1; stroke:none;"
     d="M297 200L298 201L297 200z"
     id="path212" />
  <path
     style="fill:#fdc10a; stroke:none;"
     d="M366 200L367 201L366 200M21 201L22 202L21 201M49 201L50 202L49 201z"
     id="path213" />
  <path
     style="fill:#0bacc1; stroke:none;"
     d="M171 201L172 202L171 201M212 201L213 202L212 201z"
     id="path214" />
  <path
     style="fill:#0bacc1; stroke:none;"
     d="M313 201L314 202L313 201z"
     id="path216" />
  <path
     style="fill:#fdc10a; stroke:none;"
     d="M20 202L21 203L20 202M90 202L91 203L90 202M94 202L95 203L94 202z"
     id="path217" />
  <path
     style="fill:#0bacc1; stroke:none;"
     d="M176 202L177 203L176 202M194 202L195 203L194 202M295 202L296 203L295 202M322 202L323 203L322 202z"
     id="path218" />
  <path
     style="fill:#0bacc1; stroke:none;"
     d="M206 204L207 205L206 204z"
     id="path220" />
  <path
     style="fill:#0bacc1; stroke:none;"
     d="M259 207L260 208L259 207z"
     id="path222" />
  <path
     style="fill:#fdc10a; stroke:none;"
     d="M262 213L263 214L262 213M243 214L244 215L243 214z"
     id="path225" />
  <path
     style="fill:#fdc10a; stroke:none;"
     d="M279 214L280 215L279 214z"
     id="path227" />
  <path
     style="fill:#0bacc1; stroke:none;"
     d="M263 215L264 216L263 215M236 216L237 217L236 216M242 216L243 217L242 216M237 217L238 218L237 217z"
     id="path228" />
  <path
     style="fill:#fdc10a; stroke:none;"
     d="M241 217L242 218L241 217M265 217L266 218L265 217M230 218L231 219L230 218M239 218L240 219L239 218M278 219L279 220L278 219z"
     id="path229" />
  <path
     style="fill:#0bacc1; stroke:none;"
     d="M246 228L247 229L246 228M238 229L239 230L238 229M243 229L244 230L243 229z"
     id="path232" />
  <path
     style="fill:#fdc10a; stroke:none;"
     d="M244 229L245 230L244 229M272 231L273 232L272 231M257 232L258 233L257 232M271 232L272 233L271 232M258 233L259 234L258 233z"
     id="path233" />
  <path
     id="path236"
     style="fill:#2c2c2a; stroke:none;"
     d="M 76.425781 240.8418 C 73.471157 240.819 70.548272 241 68 241 L 68 276 L 76 276 L 76 264 C 79.945496 264 84.347682 264.46397 87.955078 262.54297 C 94.644171 258.98197 95.646882 249.29759 89.867188 244.43359 C 86.362379 241.48422 81.350154 240.87979 76.425781 240.8418 z M 76 247 C 80.403996 247.107 90.692568 251.61232 83.484375 256.82031 C 81.431477 258.30331 78.385098 257.978 76 258 L 76 247 z " />
  <path
     style="fill:#fdc10a; stroke:none;"
     d="M84 241L85 242L84 241z"
     id="path238" />
  <path
     id="path239"
     style="fill:#2c2c2a; stroke:none;"
     d="M 116.49219 240.89844 C 113.72191 240.87805 111.08675 241 109 241 L 109 276 L 117 276 L 117 263 C 123.08899 264.802 123.20138 270.65449 127.60938 274.39648 C 130.12737 276.53448 133.927 275.998 137 276 C 134.69 271.057 131.929 265.81 128 262 C 129.507 260.405 131.13425 258.86861 132.28125 256.97461 C 133.20925 255.44461 133.75966 253.792 133.84766 252 C 134.32391 242.29576 124.80302 240.95961 116.49219 240.89844 z M 150 241 L 150 247 L 165 247 C 160.287 256.47499 149.597 265.07501 149 276 L 175 276 L 175 270 L 159 270 C 164.74399 261.48801 174.863 251.46499 176 241 L 150 241 z M 117 247 C 119.435 247.113 122.49149 247.03642 124.39648 248.85742 C 126.79248 251.14942 125.71447 255.11849 122.85547 256.39648 C 121.08647 257.18648 118.881 256.978 117 257 L 117 247 z " />
  <path
     style="fill:#fdc10a; stroke:none;"
     d="M187 241L188 242L187 241z"
     id="path240" />
  <path
     style="fill:#2c2c2a; stroke:none;"
     d="M188 241C190.5 248.901 196.755 255.161 199.301 263C200.611 267.036 200 271.809 200 276L208 276C208 271.814 207.396 267.072 208.498 263C210.618 255.176 216.797 248.432 220 241C209.457 241.037 207.65 248.22 204 257C199.363 248.853 198.809 241.098 188 241z"
     id="path241" />
  <path
     style="fill:#0bacc1; stroke:none;"
     d="M195 241L196 242L195 241z"
     id="path242" />
  <path
     style="fill:#fdc10a; stroke:none;"
     d="M242 241L243 242L242 241z"
     id="path243" />
  <path
     style="fill:#2c2c2a; stroke:none;"
     d="M260 258L249 258L249 264L254 264C253.022 270.135 246.978 271.675 242.214 267.566C238.393 264.271 237.07 258.559 239.318 254.005C244.922 242.648 255.397 253.934 261 245C255.17 241.686 248.672 239.784 242 241.8C231.118 245.088 226.838 258.401 232.533 267.96C236.532 274.672 253.446 281.119 258.972 272.606C261.307 269.009 260 262.128 260 258z"
     id="path244" />
  <path
     style="fill:#0bacc1; stroke:none;"
     d="M253 241L254 242L253 241z"
     id="path245" />
  <path
     style="fill:#fdc10a; stroke:none;"
     d="M287 241L288 242L287 241z"
     id="path246" />
  <path
     id="path247"
     style="fill:#2c2c2a; stroke:none;"
     d="M 292.32617 240.95117 C 290.88223 240.99152 289.43006 241.18577 288 241.5332 C 276.25701 244.3872 271.90435 259.52438 278.65234 268.98438 C 283.02334 275.11137 290.80801 277.17637 298 275.60938 C 309.60199 273.08138 314.23824 258.6829 308.15625 249.00391 C 304.68444 243.47891 298.58326 240.77634 292.32617 240.95117 z M 292.92773 247.93164 C 302.82916 247.90716 307.16697 264.39135 296.95508 268.39648 C 284.39909 273.31948 278.45993 253.03718 289.04492 248.74219 C 290.412 248.18755 291.71177 247.93465 292.92773 247.93164 z " />
  <path
     style="fill:#fdc10a; stroke:none;"
     d="M298 241L299 242L298 241z"
     id="path248" />
  <path
     id="path249"
     style="fill:#2c2c2a; stroke:none;"
     d="M 335.8125 240.85938 C 332.81796 240.84032 329.82375 241 327 241 L 327 276 C 334.38799 276 343.28294 277.2854 349.96094 273.44141 C 360.83393 267.18341 360.35708 250.38385 349.99609 244.00586 C 345.79485 241.41961 340.80339 240.89113 335.8125 240.85938 z M 339.19336 247.92578 C 341.58239 247.94362 343.97156 248.22664 345.86719 249.60352 C 351.40318 253.62651 350.95746 263.31733 345.85547 267.48633 C 342.75847 270.01733 338.778 269.968 335 270 L 335 248 C 336.326 248 337.75994 247.91508 339.19336 247.92578 z " />
  <path
     style="fill:#0bacc1; stroke:none;"
     d="M343 241L344 242L343 241z"
     id="path250" />
  <path
     style="fill:#fdc10a; stroke:none;"
     d="M344 241L345 242L344 241z"
     id="path251" />
  <path
     id="path252"
     style="fill:#2c2c2a; stroke:none;"
     d="M 385.99414 240.99805 C 385.15655 240.99714 384.28867 241.18502 383.41992 241.60352 C 380.41992 243.04851 379.49483 248.159 378.42383 251 C 375.28283 259.32599 371.852 267.57101 369 276 C 371.359 275.992 374.43824 276.39965 376.49023 274.97266 C 380.57223 272.13366 379.92001 268.17444 386 268.02344 C 392.66499 267.85844 391.88497 271.97066 396.41797 274.97266 C 398.30597 276.22365 400.85 275.975 403 276 C 401.278 265.99401 396.37053 254.18758 391.89453 245.05859 C 390.74328 242.7111 388.50692 241.00077 385.99414 240.99805 z M 386 249 C 388.292 253.217 389.733 258.36 391 263 L 382 263 L 386 249 z " />
  <path
     style="fill:#fdc10a; stroke:none;"
     d="M390 241L391 242L390 241M87 242L88 243L87 242M128 242L129 243L128 242M219 242L220 243L219 242M239 242L240 243L239 242M256 242L257 243L256 242z"
     id="path253" />
  <path
     style="fill:#0bacc1; stroke:none;"
     d="M347 242L348 243L347 242z"
     id="path254" />
  <path
     style="fill:#fdc10a; stroke:none;"
     d="M89 243L90 244L89 243M258 243L259 244L258 243z"
     id="path255" />
  <path
     style="fill:#0bacc1; stroke:none;"
     d="M349 243L350 244L349 243M90 244L91 245L90 244z"
     id="path256" />
  <path
     style="fill:#fdc10a; stroke:none;"
     d="M131 244L132 245L131 244z"
     id="path257" />
  <path
     style="fill:#0bacc1; stroke:none;"
     d="M236 244L237 245L236 244z"
     id="path258" />
  <path
     style="fill:#fdc10a; stroke:none;"
     d="M304 244L305 245L304 244z"
     id="path259" />
  <path
     style="fill:#0bacc1; stroke:none;"
     d="M91 245L92 246L91 245z"
     id="path260" />
  <path
     style="fill:#fdc10a; stroke:none;"
     d="M175 245L176 246L175 245M280 245L281 246L280 245z"
     id="path261" />
  <path
     style="fill:#0bacc1; stroke:none;"
     d="M305 245L306 246L305 245z"
     id="path262" />
  <path
     style="fill:#fdc10a; stroke:none;"
     d="M352 245L353 246L352 245M380 245L381 246L380 245z"
     id="path263" />
  <path
     style="fill:#0bacc1; stroke:none;"
     d="M190 246L191 247L190 246z"
     id="path264" />
  <path
     style="fill:#fdc10a; stroke:none;"
     d="M279 246L280 247L279 246z"
     id="path265" />
  <path
     style="fill:#0bacc1; stroke:none;"
     d="M306 246L307 247L306 246M353 246L354 247L353 246z"
     id="path266" />
  <path
     style="fill:#fdc10a; stroke:none;"
     d="M392 246L393 247L392 246z"
     id="path267" />
  <path
     style="fill:#0bacc1; stroke:none;"
     d="M82 247L83 248L82 247z"
     id="path269" />
  <path
     style="fill:#0bacc1; stroke:none;"
     d="M216 247L217 248L216 247M233 247L234 248L233 247z"
     id="path272" />
  <path
     style="fill:#0bacc1; stroke:none;"
     d="M259 247L260 248L259 247z"
     id="path274" />
  <path
     style="fill:#0bacc1; stroke:none;"
     d="M342 247L343 248L342 247z"
     id="path276" />
  <path
     style="fill:#fdc10a; stroke:none;"
     d="M354 247L355 248L354 247z"
     id="path277" />
  <path
     style="fill:#0bacc1; stroke:none;"
     d="M173 248L174 249L173 248z"
     id="path278" />
  <path
     style="fill:#fdc10a; stroke:none;"
     d="M191 248L192 249L191 248M243 248L244 249L243 248M288 248L289 249L288 248z"
     id="path279" />
  <path
     style="fill:#fdc10a; stroke:none;"
     d="M297 248L298 249L297 248z"
     id="path281" />
  <path
     style="fill:#0bacc1; stroke:none;"
     d="M379 248L380 249L379 248z"
     id="path283" />
  <path
     style="fill:#fdc10a; stroke:none;"
     d="M93 249L94 250L93 249z"
     id="path284" />
  <path
     style="fill:#0bacc1; stroke:none;"
     d="M207 249L208 250L207 249z"
     id="path285" />
  <path
     style="fill:#fdc10a; stroke:none;"
     d="M215 249L216 250L215 249M277 249L278 250L277 249z"
     id="path286" />
  <path
     style="fill:#0bacc1; stroke:none;"
     d="M346 249L347 250L346 249z"
     id="path287" />
  <path
     style="fill:#0bacc1; stroke:none;"
     d="M393 249L394 250L393 249z"
     id="path289" />
  <path
     style="fill:#fdc10a; stroke:none;"
     d="M85 250L86 251L85 250z"
     id="path290" />
  <path
     style="fill:#0bacc1; stroke:none;"
     d="M163 250L164 251L163 250z"
     id="path291" />
  <path
     style="fill:#fdc10a; stroke:none;"
     d="M231 250L232 251L231 250z"
     id="path292" />
  <path
     style="fill:#0bacc1; stroke:none;"
     d="M347 250L348 251L347 250z"
     id="path293" />
  <path
     style="fill:#fdc10a; stroke:none;"
     d="M171 251L172 252L171 251z"
     id="path294" />
  <path
     style="fill:#0bacc1; stroke:none;"
     d="M206 251L207 252L206 251z"
     id="path295" />
  <path
     style="fill:#fdc10a; stroke:none;"
     d="M276 251L277 252L276 251z"
     id="path296" />
  <path
     style="fill:#0bacc1; stroke:none;"
     d="M309 251L310 252L309 251z"
     id="path297" />
  <path
     style="fill:#fdc10a; stroke:none;"
     d="M385 251L386 252L385 251z"
     id="path298" />
  <path
     style="fill:#0bacc1; stroke:none;"
     d="M201 252L202 253L201 252z"
     id="path299" />
  <path
     style="fill:#fdc10a; stroke:none;"
     d="M239 252L240 253L239 252M301 252L302 253L301 252M387 252L388 253L387 252z"
     id="path300" />
  <path
     style="fill:#0bacc1; stroke:none;"
     d="M194 253L195 254L194 253z"
     id="path301" />
  <path
     style="fill:#fdc10a; stroke:none;"
     d="M205 253L206 254L205 253M230 253L231 254L230 253M357 253L358 254L357 253M377 253L378 254L377 253M85 254L86 255L85 254M169 254L170 255L169 254z"
     id="path302" />
  <path
     style="fill:#0bacc1; stroke:none;"
     d="M202 254L203 255L202 254z"
     id="path303" />
  <path
     style="fill:#fdc10a; stroke:none;"
     d="M212 254L213 255L212 254M310 254L311 255L310 254z"
     id="path304" />
  <path
     style="fill:#0bacc1; stroke:none;"
     d="M349 254L350 255L349 254z"
     id="path305" />
  <path
     style="fill:#fdc10a; stroke:none;"
     d="M384 254L385 255L384 254M395 254L396 255L395 254z"
     id="path306" />
  <path
     style="fill:#0bacc1; stroke:none;"
     d="M93 255L94 256L93 255z"
     id="path307" />
  <path
     style="fill:#fdc10a; stroke:none;"
     d="M133 255L134 256L133 255M195 255L196 256L195 255M204 255L205 256L204 255M238 255L239 256L238 255z"
     id="path308" />
  <path
     style="fill:#fdc10a; stroke:none;"
     d="M388 255L389 256L388 255M203 256L204 257L203 256M211 256L212 257L211 256z"
     id="path310" />
  <path
     style="fill:#0bacc1; stroke:none;"
     d="M376 256L377 257L376 256z"
     id="path311" />
  <path
     style="fill:#0bacc1; stroke:none;"
     d="M396 257L397 258L396 257z"
     id="path313" />
  <path
     style="fill:#fdc10a; stroke:none;"
     d="M92 258L93 259L92 258z"
     id="path314" />
  <path
     style="fill:#fdc10a; stroke:none;"
     d="M375 258L376 259L375 258M389 258L390 259L389 258z"
     id="path316" />
  <path
     style="fill:#0bacc1; stroke:none;"
     d="M130 259L131 260L130 259z"
     id="path317" />
  <path
     style="fill:#fdc10a; stroke:none;"
     d="M397 259L398 260L397 259M156 260L157 261L156 260z"
     id="path318" />
  <path
     style="fill:#0bacc1; stroke:none;"
     d="M198 260L199 261L198 260z"
     id="path319" />
  <path
     style="fill:#fdc10a; stroke:none;"
     d="M382 260L383 261L382 260z"
     id="path320" />
  <path
     style="fill:#0bacc1; stroke:none;"
     d="M164 261L165 262L164 261z"
     id="path321" />
  <path
     style="fill:#fdc10a; stroke:none;"
     d="M208 261L209 262L208 261M238 261L239 262L238 261M275 261L276 262L275 261M302 261L303 262L302 261M349 261L350 262L349 261M374 261L375 262L374 261M88 262L89 263L88 262M199 262L200 263L199 262z"
     id="path322" />
  <path
     style="fill:#0bacc1; stroke:none;"
     d="M238 262L239 263L238 262M310 262L311 263L310 262M349 262L350 263L349 262M398 262L399 263L398 262z"
     id="path323" />
  <path
     style="fill:#fdc10a; stroke:none;"
     d="M86 263L87 264L86 263M120 263L121 264L120 263z"
     id="path324" />
  <path
     style="fill:#0bacc1; stroke:none;"
     d="M154 263L155 264L154 263z"
     id="path325" />
  <path
     style="fill:#fdc10a; stroke:none;"
     d="M301 264L302 265L301 264M276 265L277 266L276 265M122 266L123 267L122 266M131 266L132 267L131 266z"
     id="path328" />
  <path
     style="fill:#0bacc1; stroke:none;"
     d="M152 266L153 267L152 266z"
     id="path329" />
  <path
     style="fill:#fdc10a; stroke:none;"
     d="M240 266L241 267L240 266z"
     id="path330" />
  <path
     style="fill:#0bacc1; stroke:none;"
     d="M300 266L301 267L300 266z"
     id="path331" />
  <path
     style="fill:#fdc10a; stroke:none;"
     d="M347 266L348 267L347 266M356 266L357 267L356 266M372 266L373 267L372 266M160 267L161 268L160 267M241 267L242 268L241 267z"
     id="path332" />
  <path
     style="fill:#0bacc1; stroke:none;"
     d="M277 267L278 268L277 267M299 267L300 268L299 267z"
     id="path333" />
  <path
     style="fill:#fdc10a; stroke:none;"
     d="M346 267L347 268L346 267M400 267L401 268L400 267z"
     id="path334" />
  <path
     style="fill:#0bacc1; stroke:none;"
     d="M242 268L243 269L242 268M345 268L346 269L345 268z"
     id="path335" />
  <path
     style="fill:#fdc10a; stroke:none;"
     d="M233 269L234 270L233 269z"
     id="path336" />
  <path
     style="fill:#0bacc1; stroke:none;"
     d="M244 269L245 270L244 269M252 269L253 270L252 269M290 269L291 270L290 269z"
     id="path337" />
  <path
     style="fill:#0bacc1; stroke:none;"
     d="M295 269L296 270L295 269z"
     id="path339" />
  <path
     style="fill:#fdc10a; stroke:none;"
     d="M307 269L308 270L307 269M342 269L343 270L342 269z"
     id="path340" />
  <path
     style="fill:#0bacc1; stroke:none;"
     d="M354 269L355 270L354 269M371 269L372 270L371 269z"
     id="path341" />
  <path
     style="fill:#fdc10a; stroke:none;"
     d="M379 269L380 270L379 269M149 270L150 271L149 270M279 270L280 271L279 270M393 270L394 271L393 270z"
     id="path342" />
  <path
     style="fill:#0bacc1; stroke:none;"
     d="M401 270L402 271L401 270M125 271L126 272L125 271M134 271L135 272L134 271M280 271L281 272L280 271z"
     id="path343" />
  <path
     style="fill:#fdc10a; stroke:none;"
     d="M236 272L237 273L236 272M281 272L282 273L281 272M351 272L352 273L351 272M378 272L379 273L378 272M402 272L403 273L402 272M126 273L127 274L126 273M259 273L260 274L259 273M303 273L304 274L303 273M394 273L395 274L394 273M239 274L240 275L239 274z"
     id="path344" />
  <path
     style="fill:#0bacc1; stroke:none;"
     d="M257 274L258 275L257 274z"
     id="path345" />
  <path
     style="fill:#fdc10a; stroke:none;"
     d="M284 274L285 275L284 274z"
     id="path346" />
  <path
     style="fill:#0bacc1; stroke:none;"
     d="M301 274L302 275L301 274z"
     id="path347" />
  <path
     style="fill:#fdc10a; stroke:none;"
     d="M369 274L370 275L369 274z"
     id="path348" />
  <path
     style="fill:#0bacc1; stroke:none;"
     d="M242 275L243 276L242 275M287 275L288 276L287 275z"
     id="path349" />
  <path
     style="fill:#fdc10a; stroke:none;"
     d="M299 275L300 276L299 275z"
     id="path350" />
  <path
     style="fill:#0bacc1; stroke:none;"
     d="M344 275L345 276L344 275z"
     id="path351" />
  <path
     style="fill:#fdc10a; stroke:none;"
     d="M345 275L346 276L345 275z"
     id="path352" />
  <path
     style="fill:#0bacc1; stroke:none;"
     d="M403 275L404 276L403 275z"
     id="path353" />
  <path
     style="fill:#0bacc1; stroke:none;"
     d="M161 305C176.702 300.468 189.604 290.725 207 292.174C245.368 295.368 279.473 317.459 318 318.96C333.75 319.574 349.771 314.664 364 308.424C374.382 303.87 391.174 296.07 397 286C388.596 287.26 380.744 292.217 373 295.576C355.874 303.004 337.06 310.772 318 309.961C282.125 308.434 251.444 284.059 215 284C199.901 283.976 185.585 286.967 172 293.759C167.212 296.153 160.088 298.84 161 305M182 325C194.035 324.05 205.993 323.216 218 325.321C229.801 327.389 241.001 331.958 253 333.075C260.615 333.783 273.601 336.056 278 328C270.613 325.755 262.572 325.65 255 323.986C238.792 320.425 223.725 315.994 207 316C198.823 316.003 186.687 317.337 182 325z"
     id="path355" />
</svg>
