<?xml version="1.0" standalone="yes"?>
<svg xmlns="http://www.w3.org/2000/svg" width="514" height="334">
<path style="fill:#fefefe; stroke:none;" d="M0 0L0 130C7.23315 124.455 11.9194 129.381 14.2755 137C18.0973 149.36 17.2762 162.745 21 175C26.3359 166.264 24.2921 153.218 30.7022 145.149C33.9047 141.117 38.4749 142.453 41.3511 146.109C45.7509 151.702 46.142 160.217 47 167C51.3008 158.97 52.1646 148.6 55.4252 140C57.3503 134.922 59.1446 130.562 65 130C60.3211 147.141 55.4214 163.369 52.5895 181C51.5652 187.377 52.2246 198.725 47.4275 203.566C42.7943 208.24 37.3121 203.669 35.2137 198.996C30.821 189.214 30.4545 175.585 30 165C25.998 172.472 25.4649 182.705 24.0802 191C23.4793 194.6 23.253 199.997 19.7716 202.149C13.5142 206.017 9.61145 195.169 8.42824 191C4.08654 175.703 1.13164 157.903 1 142C-1.18893 147.216 0 154.381 0 160L0 199L0 334L257 334C252.206 331.984 246.14 332.193 241 330.846C221.144 325.64 202.569 322.401 182 325C188.502 317.963 198.808 316.004 208 316C224.292 315.994 239.197 320.873 255 324.196C262.616 325.797 270.444 326.18 278 328C274.961 331.684 271.676 332.614 267 333C273.436 335.701 283.049 334 290 334L340 334L514 334L514 0L484 0C487.333 9.5672 471.81 18.6814 468 27C470.784 27.0583 473.291 27.3521 476 28C472.165 32.7318 466.299 34.3698 461 37.1088C454.258 40.594 447.868 44.8033 442 49.6158C432.851 57.1185 426.485 70.6917 416 76C416.183 67.4295 419.931 59.539 423.756 52C435.07 29.7025 458.239 9.09076 482 1C477.785 -0.768768 472.536 0 468 0L440 0L341 0L0 0z"/>
<path style="fill:#fdc10a; stroke:none;" d="M416 76C423.372 73.7535 428.379 64.5927 433.286 59C440.01 51.3383 448.214 44.9962 457 39.8619C462.943 36.3891 472.654 34.2359 476 28C473.271 27.1898 470.85 27.0208 468 27C472.145 20.9378 477.303 15.6121 482.031 10C483.649 8.07944 486.549 5.10648 484.914 2.36111C483.241 -0.445984 479.191 1.51688 477 2.42902C470.635 5.07925 464.701 8.82825 459 12.6713C439.187 26.0263 416.214 50.5089 416 76M415 14C414.364 13.2314 413.461 11.8084 412.55 11.1767C404.253 5.42319 403.982 21.4635 403.246 26C401.312 37.9271 400.27 50.0147 402.325 62C403.006 65.9745 404.281 71.412 406.441 74.8472C407.286 76.19 409.465 78.3023 410.897 76.338C412.978 73.4849 409.693 65.3085 409.286 62C408.759 57.7105 409 53.3137 409 49C409 42.6156 409.982 36.3709 410 30C417.954 34.0238 418.862 26.1051 420 20C420.881 22.0214 421.496 23.8541 422 26C428.774 24.8275 428.242 16.614 429 11C429.28 8.92792 430.062 6.26865 429.307 4.22919C427.777 0.0952148 423.491 2.1409 421.174 4.15201C419.935 5.22665 418.894 6.6712 417.943 7.99615C416.554 9.93073 415.74 11.7688 415 14M420 84L424 84C424.164 86.1067 424.12 88.3302 426.318 89.3981C428.522 90.4693 431.61 90.0647 434 90.439C440.317 91.4286 451.545 96.4643 457.677 93.3966C462.083 91.193 457.26 87.269 455 86C461.228 82.659 468.22 83.611 474.995 82.4051C480.529 81.4202 481.315 78.4442 476.985 74.6482C475.817 73.6239 474.299 72.8283 473 72C483.027 68.7372 491.678 67.933 502 66.7145C504.527 66.4162 510.311 66.744 511.914 64.412C513.828 61.6278 510.015 59.5494 507.981 58.7106C502.304 56.3703 496.113 54.7613 490 54.1698C471.975 52.4255 451.81 55.0452 436 64.2322C428.687 68.4815 421.165 75.238 420 84z"/>
<path style="fill:#fefefe; stroke:none;" d="M424 83C427.356 82.377 430.579 81.8302 434 82.3009C436.832 82.6907 439.833 84.0552 442.715 83.4113C445.626 82.7605 448.179 80.5612 451.001 79.5486C457.14 77.3459 463.555 77.0007 470 77C467.404 74.4456 464.32 72.8677 462 70C466.466 68.1491 470.305 65.3556 475 64C469.841 61.8358 463.25 63.6763 458 65.0031C445.968 68.0435 430.309 70.9406 424 83z"/>
<path style="fill:#fdc10a; stroke:none;" d="M346 120C346.111 121.35 346.134 122.719 346.483 124.04C347.701 128.655 351.463 131.438 355.034 126.851C358.586 122.289 361.41 115.519 363 110L365 110C366.236 113.188 368.042 121.5 372.093 122.079C375.972 122.633 379.672 115.473 381.755 113.004C389.294 104.066 399.382 97.4897 409 91C405.273 83.075 397.039 80.0544 389 78.1304C364.192 72.1933 339.006 91.4775 328.89 113C325.575 120.052 323.96 127.222 324.001 135C324.014 137.543 323.764 143.326 327.965 142.248C331.109 141.442 332.862 137.496 334.424 135C337.807 129.593 340.885 123.924 346 120M397 141C398.388 143.196 400.642 149.605 403.961 149.079C407.59 148.503 407.875 141.739 408.389 139C410.392 128.314 412.395 117.478 415.295 107C416.306 103.347 420.707 94.8531 417.382 91.6227C415.432 89.7276 412.833 90.9673 411.004 92.3225C406.955 95.3221 403.837 99.8837 401.029 104C392.383 116.672 386.031 131.513 386 147C385.994 150.104 384.229 156.965 386.624 159.338C388.805 161.499 390.766 158.821 391.612 156.941C393.851 151.965 395.565 146.258 397 141z"/>
<path style="fill:#0bacc1; stroke:none;" d="M147 109C149.756 113.843 154.822 114.525 160 115.271C171.643 116.949 181.71 112.809 192 107.756C196.258 105.665 202.334 104.787 204 100C193.572 100.852 185.078 107.078 175 109.335C165.069 111.559 156.868 109.424 147 109M138 123C142.59 131.834 157.874 134.316 167 133.96C193.665 132.919 214.733 112.427 241 109.156C249.599 108.085 258.324 107.495 267 108.09C273.733 108.551 280.379 109.957 287 108L287 106C265.256 96.3757 235.217 101.313 214 110.284C202.65 115.083 192.063 122.82 180 125.761C172.034 127.703 164.049 128.172 156 126.486C150.062 125.242 144.068 121.736 138 123z"/>
<path style="fill:#fdc10a; stroke:none;" d="M440 105C439.228 110.437 443.63 114.01 446.916 118C453.356 125.819 458.709 134.386 464 143C458.031 143.754 452.013 144.742 446 145C444.238 134.764 437.804 123.88 432.548 115C431.78 113.702 425.452 102.841 423.809 108.337C423.179 110.446 424.647 113.115 425.425 115C427.487 119.997 429.666 124.939 431.575 130C437.448 145.573 441.561 162.5 443.711 179C446.454 200.061 445.647 222.131 441.83 243C440.467 250.455 437.944 257.725 435.859 265C434.961 268.132 433.219 271.68 433.579 275C434.091 279.72 438.313 283.416 442.001 285.896C450.825 291.83 460.53 294 471 294C475.734 294 481.806 294.74 485.157 290.606C487.806 287.339 489.07 281.968 490.279 278C493.241 268.284 495.158 259.107 496.169 249C500.107 209.618 489.865 168.069 467.996 135C461.067 124.522 451.744 110.38 440 105z"/>
<path style="fill:#fefefe; stroke:none;" d="M403 114C400.573 119.341 397.569 124.306 396 130C402.958 129.458 405.13 119.939 403 114z"/>
<path style="fill:#0bacc1; stroke:none;" d="M4 126C5.24838 126.685 5.5484 126.749 7 127C5.75167 126.315 5.45155 126.251 4 126M2 127L3 128L2 127z"/>
<path style="fill:#2c2c2a; stroke:none;" d="M29 165C32.5247 173.353 31.7605 184.013 33.6011 193C34.4311 197.053 35.2891 202.527 39.2137 204.82C47.716 209.789 49.7751 198.553 50.5795 193C53.6412 171.866 57.2824 151.006 65 131C59.1402 129.679 57.6886 134.16 55.811 139C52.3206 147.996 48.7877 158.356 48 168L46 168C46 160.787 46.0704 152.421 41.7755 146.189C39.5661 142.983 35.0161 140.795 31.6489 143.743C28.6878 146.336 28.0331 151.392 27.1265 155C25.2691 162.392 23.322 169.738 21 177C18.8212 169.697 18.6787 161.544 17.4136 154C16.2166 146.862 16.1017 137.235 11.9946 131.059C7.46453 124.247 0.131053 127.544 0.0794753 135.001C0.045148 139.964 1.25558 145.078 1.84491 150C3.24125 161.663 4.38795 173.556 7.1304 185C8.33179 190.013 9.11327 197.946 13.3935 201.396C16.1533 203.62 20.0138 202.838 21.8248 199.852C24.6523 195.19 24.538 187.312 25.6003 182C26.7302 176.35 28.2318 170.705 29 165M116 184C119.848 187.134 123.363 190.477 126.91 193.941C128.254 195.253 129.939 197.364 132.022 197.364C136.053 197.364 134.219 191.89 133.145 190C130.142 184.718 125.5 179.565 120 177C124.796 172.41 131.223 168.313 133.91 162C134.84 159.815 135.667 154.636 131.891 154.636C129.308 154.636 127.412 157.35 125.83 159.019C122.738 162.282 119.575 165.276 116 168C116.001 157.855 118.524 148.076 118.961 138C119.087 135.086 119.751 129.807 116.686 128.086C111.759 125.321 109.013 133.815 108.039 137C104.557 148.393 104 160.197 104 172C104 179.084 104.077 185.962 104.834 193C105.114 195.605 104.962 198.501 106.318 200.852C108.334 204.347 113.465 204.813 115.258 200.852C117.338 196.255 116 188.963 116 184z"/>
<path style="fill:#fdc10a; stroke:none;" d="M117 127L118 128L117 127M10 128L11 129L10 128M118 128L119 129L118 128z"/>
<path style="fill:#0bacc1; stroke:none;" d="M61.6667 129.333C61.2222 129.778 62.2778 129.722 62.3333 129.667C62.7778 129.222 61.7222 129.278 61.6667 129.333M0 130L1 131L0 130z"/>
<path style="fill:#fdc10a; stroke:none;" d="M64 130L65 131L64 130M110 130L111 131L110 130M12 131L13 132L12 131M119 131L119 134C119.696 132.446 119.696 132.554 119 131M58 132L59 133L58 132M64 132L65 133L64 132M109 132L110 133L109 132M57 134L58 135L57 134z"/>
<path style="fill:#0bacc1; stroke:none;" d="M63 134L64 135L63 134M119.333 134.667C119.278 134.722 119.222 135.778 119.667 135.333C119.722 135.278 119.778 134.222 119.333 134.667z"/>
<path style="fill:#2c2c2a; stroke:none;" d="M271.279 135.032C264.957 138.87 268.611 152.903 276.772 147.971C283.14 144.123 278.869 130.424 271.279 135.032z"/>
<path style="fill:#fdc10a; stroke:none;" d="M277 134L278 135L277 134z"/>
<path style="fill:#0bacc1; stroke:none;" d="M108 135L109 136L108 135M278 135L279 136L278 135z"/>
<path style="fill:#fdc10a; stroke:none;" d="M119 136L119 139C119.696 137.446 119.696 137.554 119 136M14 137L15 138L14 137z"/>
<path style="fill:#0bacc1; stroke:none;" d="M56 137L57 138L56 137z"/>
<path style="fill:#fdc10a; stroke:none;" d="M62 137L63 138L62 137M107 138L108 139L107 138M268 138L269 139L268 138M0 139L0 142C0.696111 140.446 0.696102 140.554 0 139M55 139L56 140L55 139M280 139L280 143C280.71 141.241 280.71 140.759 280 139z"/>
<path style="fill:#0bacc1; stroke:none;" d="M61 140L62 141L61 140z"/>
<path style="fill:#fdc10a; stroke:none;" d="M15 141L16 142L15 141z"/>
<path style="fill:#0bacc1; stroke:none;" d="M15 142L16 143L15 142M32 142L33 143L32 142z"/>
<path style="fill:#fdc10a; stroke:none;" d="M54 142L55 143L54 142M106 142L107 143L106 142z"/>
<path style="fill:#0bacc1; stroke:none;" d="M118 142L118 145C118.696 143.446 118.696 143.554 118 142M39 143L40 144L39 143M106 143L107 144L106 143z"/>
<path style="fill:#fdc10a; stroke:none;" d="M30 144L31 145L30 144M60 144L61 145L60 144z"/>
<path style="fill:#0bacc1; stroke:none;" d="M41 145L42 146L41 145z"/>
<path style="fill:#fdc10a; stroke:none;" d="M53 145L54 146L53 145M279 145L280 146L279 145M16.3333 146.667C16.2778 146.722 16.2222 147.778 16.6667 147.333C16.7222 147.278 16.7778 146.222 16.3333 146.667M29 146L30 147L29 146M268 146L269 147L268 146z"/>
<path style="fill:#0bacc1; stroke:none;" d="M1 147L1 150C1.6961 148.446 1.6961 148.554 1 147z"/>
<path style="fill:#fdc10a; stroke:none;" d="M59 147L60 148L59 147M105 147L106 148L105 147z"/>
<path style="fill:#0bacc1; stroke:none;" d="M16 148L17 149L16 148z"/>
<path style="fill:#fdc10a; stroke:none;" d="M52 148L53 149L52 148z"/>
<path style="fill:#0bacc1; stroke:none;" d="M105 148L106 149L105 148z"/>
<path style="fill:#fdc10a; stroke:none;" d="M277 148L278 149L277 148z"/>
<path style="fill:#fefefe; stroke:none;" d="M448 150C450.244 158.395 452.367 166.457 454 175C454.49 177.565 454.372 182.219 456.603 183.972C458.501 185.464 461.757 184.995 464 185L480 185C478.988 172.611 473.103 158.724 467 148C460.475 150.073 454.798 151.258 448 150z"/>
<path style="fill:#fdc10a; stroke:none;" d="M28 149L29 150L28 149z"/>
<path style="fill:#0bacc1; stroke:none;" d="M43 149L44 150L43 149M117 149L117 152C117.696 150.446 117.696 150.554 117 149M272 149C273.248 149.685 273.548 149.749 275 150C273.752 149.315 273.452 149.251 272 149M58 150L59 151L58 150z"/>
<path style="fill:#fdc10a; stroke:none;" d="M82 151C83.5061 151.683 84.3148 151.826 86 152C84.4939 151.317 83.6852 151.174 82 151M94.6667 151.333C94.2222 151.778 95.2778 151.722 95.3333 151.667C95.7777 151.222 94.7222 151.278 94.6667 151.333M164 151C165.506 151.683 166.315 151.826 168 152C166.494 151.317 165.685 151.174 164 151z"/>
<path style="fill:#0bacc1; stroke:none;" d="M176.667 151.333C176.222 151.778 177.278 151.722 177.333 151.667C177.778 151.222 176.722 151.278 176.667 151.333z"/>
<path style="fill:#fdc10a; stroke:none;" d="M352 151C353.248 151.685 353.548 151.749 355 152C353.752 151.315 353.452 151.251 352 151M364.667 151.333C364.222 151.778 365.278 151.722 365.333 151.667C365.778 151.222 364.722 151.278 364.667 151.333M17 152L17 155C17.6961 153.446 17.6961 153.554 17 152M27 152L28 153L27 152z"/>
<path style="fill:#0bacc1; stroke:none;" d="M44 152L45 153L44 152M51 152L52 153L51 152M79 152L80 153L79 152z"/>
<path style="fill:#2c2c2a; stroke:none;" d="M86 174C87.7793 181.043 85.1167 188.671 86.8233 195.996C87.5647 199.178 89.6869 203.524 93.7755 202.149C97.9908 200.732 96.8474 194.373 97.1698 191C98.0822 181.45 100.008 171.595 99.9923 162C99.9871 158.895 99.9952 154.115 96.6065 152.621C94.4054 151.651 91.8621 152.78 89.5756 152.684C85.4829 152.511 81.9949 151.558 78 153.228C66.3888 158.084 56.0713 176.45 57.189 189C57.7695 195.518 63.2818 201.663 69.9097 197.258C73.8241 194.656 76.4392 189.823 78.9992 186C81.603 182.112 84.1433 178.303 86 174z"/>
<path style="fill:#fdc10a; stroke:none;" d="M88 152L89 153L88 152M161 152L162 153L161 152z"/>
<path style="fill:#2c2c2a; stroke:none;" d="M168 174C169.703 179.76 168.921 186.032 169.004 192C169.066 196.439 173.831 207.855 178.682 199.771C180.971 195.957 179.911 190.238 180.015 186C180.195 178.652 181.808 171.348 181.985 164C182.065 160.691 182.775 155.179 179.566 153.032C177.171 151.43 174.191 152.794 171.576 152.684C167.407 152.508 164.027 151.58 160 153.417C149.277 158.311 140.6 173.401 140.04 185C139.871 188.494 139.564 192.876 141.742 195.852C144.958 200.244 150.358 198.928 153.907 195.772C159.793 190.536 165.309 181.351 168 174z"/>
<path style="fill:#0bacc1; stroke:none;" d="M170 152L171 153L170 152z"/>
<path style="fill:#2c2c2a; stroke:none;" d="M356 174C357.942 181.065 354.736 188.705 356.533 195.996C357.317 199.176 359.803 203.484 363.775 202.149C367.941 200.748 366.888 194.359 367.285 191C368.395 181.623 370.012 171.432 369.992 162C369.985 158.527 369.768 154.041 365.895 152.654C363.854 151.922 361.665 152.776 359.576 152.684C355.949 152.524 352.605 151.485 349 152.703C336.692 156.861 325.401 177.229 327.309 190C327.505 191.317 327.791 192.798 328.434 193.981C335.021 206.112 344.839 192.274 348.996 186C351.561 182.129 354.034 178.206 356 174z"/>
<path style="fill:#fdc10a; stroke:none;" d="M358 152L359 153L358 152z"/>
<path style="fill:#0bacc1; stroke:none;" d="M367 152L368 153L367 152M27 153L28 154L27 153M98 153L99 154L98 153z"/>
<path style="fill:#fdc10a; stroke:none;" d="M131.667 153.333C131.222 153.778 132.278 153.722 132.333 153.667C132.778 153.222 131.722 153.278 131.667 153.333z"/>
<path style="fill:#0bacc1; stroke:none;" d="M159 153L160 154L159 153M368 153L369 154L368 153z"/>
<path style="fill:#fdc10a; stroke:none;" d="M57 154L58 155L57 154M75 154L76 155L75 154M104.333 154.667C104.278 154.722 104.222 155.778 104.667 155.333C104.722 155.278 104.778 154.222 104.333 154.667M134 154L135 155L134 154M181 154L182 155L181 154z"/>
<path style="fill:#0bacc1; stroke:none;" d="M345 154L346 155L345 154M2.33333 155.667C2.27778 155.722 2.22222 156.778 2.66667 156.333C2.72222 156.278 2.77778 155.222 2.33333 155.667z"/>
<path style="fill:#fdc10a; stroke:none;" d="M50 155L51 156L50 155z"/>
<path style="fill:#0bacc1; stroke:none;" d="M99 155L100 156L99 155M156 155L157 156L156 155z"/>
<path style="fill:#fdc10a; stroke:none;" d="M204.667 155.333C204.222 155.778 205.278 155.722 205.333 155.667C205.778 155.222 204.722 155.278 204.667 155.333z"/>
<path style="fill:#0bacc1; stroke:none;" d="M206 155C207.248 155.685 207.549 155.749 209 156C207.752 155.315 207.452 155.251 206 155z"/>
<path style="fill:#fdc10a; stroke:none;" d="M209 155L210 156L209 155M252 155L253 156L252 155z"/>
<path style="fill:#2c2c2a; stroke:none;" d="M237 182C237 176.668 237.071 171.331 236.996 166C236.962 163.581 237.122 160.47 235.258 158.608C232.539 155.89 229.305 158.343 227.97 161.059C225.666 165.744 224.735 172.837 225.174 178C225.611 183.153 226.707 189.998 231.213 193.257C239.262 199.079 246.17 187.338 248 181C249.131 184.863 248.628 188.049 248.155 192C247.274 199.369 247.533 209.779 242.39 215.728C239.067 219.572 231.593 213.527 230.623 220.059C229.796 225.624 236.126 229.622 241 229.63C246.783 229.639 251.438 225.823 254 221C255.079 224.616 254.846 228.844 257.434 231.852C264.454 240.012 274.125 231.159 276.931 224C282.767 209.109 281.66 190.591 280.17 175C279.676 169.832 280.271 163.952 277.995 159.109C276.616 156.176 273.337 154.378 270.513 156.758C266.126 160.454 267 169.906 267 175C266.999 186.77 268.242 199.34 266.572 211C265.889 215.765 265.39 220.427 262 224L263 214C260.553 214.309 259.166 214.805 257 216C261.697 201.312 263.3 184.385 261.83 169C261.395 164.448 260.403 153.4 253.104 155.801C249.692 156.923 248.283 161.027 247.001 164C244.311 170.239 242.267 177.485 237 182z"/>
<path style="fill:#0bacc1; stroke:none;" d="M271 155L272 156L271 155z"/>
<path style="fill:#fdc10a; stroke:none;" d="M275 155L276 156L275 155z"/>
<path style="fill:#0bacc1; stroke:none;" d="M292 155C293.248 155.685 293.548 155.749 295 156C293.752 155.315 293.452 155.251 292 155z"/>
<path style="fill:#2c2c2a; stroke:none;" d="M298 182C296.298 176.187 298.078 170.017 297.996 164C297.966 161.797 298.223 158.567 296.258 157.032C290.752 152.734 287.522 162.533 286.63 166C284.451 174.458 283.322 186.48 285.789 195C288.625 204.79 296.561 204.095 299.413 194.999C300.575 191.292 301.772 187.614 303.204 184C305.069 179.292 307.598 174.868 309 170C310.818 176.15 309.625 182.66 310.09 189C310.407 193.313 311.504 199.347 314.649 202.562C317.353 205.328 321.396 204.706 322.566 200.891C323.91 196.512 322.124 191.454 322.015 187C321.821 179.061 324.223 170.832 322.316 163C319.877 152.989 312.329 154.982 307.52 162.004C305.986 164.244 304.597 166.611 303.309 169C301.077 173.142 299.24 177.465 298 182z"/>
<path style="fill:#0bacc1; stroke:none;" d="M369 155L370 156L369 155z"/>
<path style="fill:#fdc10a; stroke:none;" d="M45 156L46 157L45 156z"/>
<path style="fill:#0bacc1; stroke:none;" d="M50 156L51 157L50 156M135 156L135 159C135.696 157.446 135.696 157.554 135 156z"/>
<path style="fill:#fdc10a; stroke:none;" d="M201 156L202 157L201 156z"/>
<path style="fill:#2c2c2a; stroke:none;" d="M221 184C218.513 184.192 216.697 184.396 214.899 186.318C212.561 188.817 210.312 194.772 206.039 194.23C202.831 193.823 201.074 189.648 200.225 187C197.507 178.513 202.126 168.962 209 164C209.604 165.6 210.118 167.368 210.942 168.876C212.862 172.388 216.333 171.726 217.413 167.941C218.463 164.258 216.984 159.96 213.867 157.742C208.556 153.966 200.477 156.284 196.04 160.214C187.923 167.403 183.788 180.444 186.789 191C187.575 193.766 188.865 196.63 190.638 198.906C202.332 213.911 220.685 198.712 221 184z"/>
<path style="fill:#fdc10a; stroke:none;" d="M212 156L213 157L212 156M258 156L259 157L258 156z"/>
<path style="fill:#0bacc1; stroke:none;" d="M319 156L320 157L319 156z"/>
<path style="fill:#fdc10a; stroke:none;" d="M2.33333 157.667C2.27778 157.722 2.22222 158.778 2.66667 158.333C2.72222 158.278 2.77778 157.222 2.33333 157.667z"/>
<path style="fill:#0bacc1; stroke:none;" d="M26 157L27 158L26 157M116 157L116 160C116.696 158.446 116.696 158.554 116 157M127 157L128 158L127 157z"/>
<path style="fill:#fdc10a; stroke:none;" d="M182 157L182 162C182.83 159.97 182.83 159.03 182 157M199 157L200 158L199 157M277 157L278 158L277 157M297 157L298 158L297 157M320 157L321 158L320 157z"/>
<path style="fill:#0bacc1; stroke:none;" d="M56 158L57 159L56 158z"/>
<path style="fill:#fdc10a; stroke:none;" d="M126 158L127 159L126 158M249 158L250 159L249 158M18.3333 159.667C18.2778 159.722 18.2222 160.778 18.6667 160.333C18.7222 160.278 18.7778 159.222 18.3333 159.667M49 159L50 160L49 159M125 159L126 160L125 159M228 159L229 160L228 159z"/>
<path style="fill:#0bacc1; stroke:none;" d="M236 159L237 160L236 159z"/>
<path style="fill:#fdc10a; stroke:none;" d="M268 159L269 160L268 159M288 159L289 160L288 159M309 159L310 160L309 159z"/>
<path style="fill:#0bacc1; stroke:none;" d="M321 159L322 160L321 159z"/>
<path style="fill:#fdc10a; stroke:none;" d="M116.333 160.667C116.278 160.722 116.222 161.778 116.667 161.333C116.722 161.278 116.778 160.222 116.333 160.667M124 160L125 161L124 160M195 160L196 161L195 160M248 160L249 161L248 160z"/>
<path style="fill:#0bacc1; stroke:none;" d="M298 160L298 165C298.83 162.97 298.83 162.03 298 160M25 161L26 162L25 161M85.3333 161.667C85.2778 161.722 85.2222 162.778 85.6667 162.333C85.7223 162.278 85.7778 161.222 85.3333 161.667z"/>
<path style="fill:#fdc10a; stroke:none;" d="M123 161L124 162L123 161M134 161L135 162L134 161z"/>
<path style="fill:#0bacc1; stroke:none;" d="M150 161L151 162L150 161z"/>
<path style="fill:#fdc10a; stroke:none;" d="M167 161L168 162L167 161M194 161L195 162L194 161z"/>
<path style="fill:#0bacc1; stroke:none;" d="M355.333 161.667C355.278 161.722 355.222 162.778 355.667 162.333C355.722 162.278 355.778 161.222 355.333 161.667z"/>
<path style="fill:#fefefe; stroke:none;" d="M84 162C77.5216 168.533 72.976 175.26 70 184C74.8554 179.99 84.9561 168.589 84 162z"/>
<path style="fill:#fdc10a; stroke:none;" d="M122 162L123 163L122 162M149 162L150 163L149 162z"/>
<path style="fill:#fefefe; stroke:none;" d="M152 184C158.912 178.666 163.931 169.644 168 162C159.424 166.01 155.257 175.605 152 184z"/>
<path style="fill:#fdc10a; stroke:none;" d="M217 162L218 163L217 162M287 162L288 163L287 162z"/>
<path style="fill:#0bacc1; stroke:none;" d="M322.333 162.667C322.278 162.722 322.222 163.778 322.667 163.333C322.722 163.278 322.778 162.222 322.333 162.667M353 162L354 163L353 162z"/>
<path style="fill:#fefefe; stroke:none;" d="M354 162C347.369 168.65 343.017 175.085 340 184C344.93 179.624 354.652 168.93 354 162z"/>
<path style="fill:#fdc10a; stroke:none;" d="M3 163L3 166C3.6961 164.446 3.69609 164.554 3 163M46.3333 163.667C46.2778 163.722 46.2222 164.778 46.6667 164.333C46.7222 164.278 46.7778 163.222 46.3333 163.667M48 163L49 164L48 163M55 163L56 164L55 163M66 163L67 164L66 163M82 163L83 164L82 163M121 163L122 164L121 163M261.333 163.667C261.278 163.722 261.222 164.778 261.667 164.333C261.722 164.278 261.778 163.222 261.333 163.667M267.333 163.667C267.278 163.722 267.222 164.778 267.667 164.333C267.722 164.278 267.778 163.222 267.333 163.667M279 163L279 166C279.696 164.446 279.696 164.554 279 163M336 163L337 164L336 163M352 163L353 164L352 163M24 164L25 165L24 164M81 164L82 165L81 164M120 164L121 165L120 164z"/>
<path style="fill:#0bacc1; stroke:none;" d="M132 164L133 165L132 164z"/>
<path style="fill:#fdc10a; stroke:none;" d="M166 164L167 165L166 164M207.667 164.333C207.222 164.778 208.278 164.722 208.333 164.667C208.778 164.222 207.722 164.278 207.667 164.333M351 164L352 165L351 164z"/>
<path style="fill:#0bacc1; stroke:none;" d="M24 165L25 166L24 165M46 165C46.4057 167.092 46.2167 167.02 48 168C47.3087 166.612 47.0154 166.139 46 165z"/>
<path style="fill:#fdc10a; stroke:none;" d="M80 165L81 166L80 165z"/>
<path style="fill:#0bacc1; stroke:none;" d="M119 165L120 166L119 165M147 165L148 166L147 165M191 165L192 166L191 165z"/>
<path style="fill:#fdc10a; stroke:none;" d="M226 165L227 166L226 165z"/>
<path style="fill:#0bacc1; stroke:none;" d="M246 165L247 166L246 165M261.333 165.667C261.278 165.722 261.222 166.778 261.667 166.333C261.722 166.278 261.778 165.222 261.333 165.667z"/>
<path style="fill:#fdc10a; stroke:none;" d="M298 165L298 168C298.696 166.446 298.696 166.554 298 165z"/>
<path style="fill:#0bacc1; stroke:none;" d="M305 165L306 166L305 165z"/>
<path style="fill:#fdc10a; stroke:none;" d="M350 165L351 166L350 165M353 165L354 166L353 165M64 166L65 167L64 166z"/>
<path style="fill:#0bacc1; stroke:none;" d="M79 166L80 167L79 166M118 166L119 167L118 166M286 166L287 167L286 166z"/>
<path style="fill:#fdc10a; stroke:none;" d="M334 166L335 167L334 166M349 166L350 167L349 166M19.3333 167.667C19.2778 167.722 19.2223 168.778 19.6667 168.333C19.7222 168.278 19.7778 167.222 19.3333 167.667z"/>
<path style="fill:#0bacc1; stroke:none;" d="M82 167L83 168L82 167z"/>
<path style="fill:#fdc10a; stroke:none;" d="M210 167L210 170C210.696 168.446 210.696 168.554 210 167M245 167L246 168L245 167z"/>
<path style="fill:#0bacc1; stroke:none;" d="M348 167L349 168L348 167z"/>
<path style="fill:#fdc10a; stroke:none;" d="M23 168L24 169L23 168M28 168L29 169L28 168M30 168L30 171C30.6961 169.446 30.6961 169.554 30 168M54 168L55 169L54 168M99 168L99 171C99.6961 169.446 99.6961 169.554 99 168M145 168L146 169L145 168M189 168L190 169L189 168z"/>
<path style="fill:#0bacc1; stroke:none;" d="M203 168L204 169L203 168M217 168L218 169L217 168z"/>
<path style="fill:#fdc10a; stroke:none;" d="M369 168L369 171C369.696 169.446 369.696 169.554 369 168M159 169L160 170L159 169z"/>
<path style="fill:#0bacc1; stroke:none;" d="M181 169L181 172C181.696 170.446 181.696 170.554 181 169M4 170L5 171L4 170z"/>
<path style="fill:#fdc10a; stroke:none;" d="M76 170L77 171L76 170z"/>
<path style="fill:#0bacc1; stroke:none;" d="M80 170L81 171L80 170z"/>
<path style="fill:#fdc10a; stroke:none;" d="M144 170L145 171L144 170M188 170L189 171L188 170z"/>
<path style="fill:#0bacc1; stroke:none;" d="M202 170L203 171L202 170z"/>
<path style="fill:#fdc10a; stroke:none;" d="M225.333 170.667C225.278 170.722 225.222 171.778 225.667 171.333C225.722 171.278 225.778 170.222 225.333 170.667z"/>
<path style="fill:#0bacc1; stroke:none;" d="M211 171L212 172L211 171M22 172L23 173L22 172M27 172L28 173L27 172M124 172L125 173L124 172z"/>
<path style="fill:#fdc10a; stroke:none;" d="M143 172L144 173L143 172M157 172L158 173L157 172z"/>
<path style="fill:#0bacc1; stroke:none;" d="M243 172L244 173L243 172M53 173L53 176C53.6961 174.446 53.6961 174.554 53 173z"/>
<path style="fill:#fdc10a; stroke:none;" d="M74 173L75 174L74 173z"/>
<path style="fill:#0bacc1; stroke:none;" d="M78 173L79 174L78 173z"/>
<path style="fill:#fdc10a; stroke:none;" d="M103 173L103 179C103.951 176.715 103.951 175.285 103 173M123 173L124 174L123 173M187 173L188 174L187 173M280.333 173.667C280.278 173.722 280.222 174.778 280.667 174.333C280.722 174.278 280.778 173.222 280.333 173.667z"/>
<path style="fill:#0bacc1; stroke:none;" d="M297.333 173.667C297.278 173.722 297.222 174.778 297.667 174.333C297.722 174.278 297.778 173.222 297.333 173.667z"/>
<path style="fill:#fdc10a; stroke:none;" d="M344 173L345 174L344 173M20 174L20 177L22 176C21.4549 174.365 21.6352 174.545 20 174z"/>
<path style="fill:#0bacc1; stroke:none;" d="M86 174L87 175L86 174z"/>
<path style="fill:#fdc10a; stroke:none;" d="M142 174L143 175L142 174M168 174L169 175L168 174M242 174L243 175L242 174M266 174L266 190C267.812 185.681 267.812 178.319 266 174M309.333 174.667C309.278 174.722 309.222 175.778 309.667 175.333C309.722 175.278 309.778 174.222 309.333 174.667z"/>
<path style="fill:#0bacc1; stroke:none;" d="M356 174L357 175L356 174z"/>
<path style="fill:#fdc10a; stroke:none;" d="M73 175L74 176L73 175M85 175L86 178C86.6848 176.752 86.7488 176.452 87 175L85 175z"/>
<path style="fill:#0bacc1; stroke:none;" d="M200 175L201 176L200 175M280 175L280 178C280.696 176.446 280.696 176.554 280 175z"/>
<path style="fill:#fdc10a; stroke:none;" d="M297 175L297 178C297.696 176.446 297.696 176.554 297 175z"/>
<path style="fill:#0bacc1; stroke:none;" d="M368 175L368 178C368.696 176.446 368.696 176.554 368 175M5 176L6 177L5 176z"/>
<path style="fill:#fdc10a; stroke:none;" d="M59 176L60 177L59 176M120 176L121 177L120 176M158 176L159 177L158 176M241 176L242 177L241 176z"/>
<path style="fill:#0bacc1; stroke:none;" d="M309 176L309 186C310.346 182.793 310.346 179.207 309 176M322 176L322 181C322.83 178.97 322.83 178.03 322 176z"/>
<path style="fill:#fdc10a; stroke:none;" d="M329 176L330 177L329 176M356.333 176.667C356.278 176.722 356.222 177.778 356.667 177.333C356.722 177.278 356.778 176.222 356.333 176.667M5 177L6 178L5 177M26 177L27 178L26 177M72 177L73 178L72 177M75 177L76 178L75 177M98 177L98 180C98.6961 178.446 98.6961 178.554 98 177M141 177L142 178L141 177z"/>
<path style="fill:#0bacc1; stroke:none;" d="M166 177L167 178L166 177z"/>
<path style="fill:#fdc10a; stroke:none;" d="M186 177L187 178L186 177M284.333 177.667C284.278 177.722 284.222 178.778 284.667 178.333C284.722 178.278 284.778 177.222 284.333 177.667z"/>
<path style="fill:#0bacc1; stroke:none;" d="M299 177L300 178L299 177z"/>
<path style="fill:#fdc10a; stroke:none;" d="M342 177L343 178L342 177M345 177L346 178L345 177z"/>
<path style="fill:#0bacc1; stroke:none;" d="M86.3333 178.667C86.2778 178.722 86.2222 179.778 86.6667 179.333C86.7223 179.278 86.7778 178.222 86.3333 178.667z"/>
<path style="fill:#fdc10a; stroke:none;" d="M240 178L241 179L240 178M305 178L306 179L305 178z"/>
<path style="fill:#0bacc1; stroke:none;" d="M353 178L354 179L353 178M356 178L356 181C356.696 179.446 356.696 179.554 356 178z"/>
<path style="fill:#fdc10a; stroke:none;" d="M58 179L59 180L58 179z"/>
<path style="fill:#0bacc1; stroke:none;" d="M71 179L72 180L71 179M156 179L157 180L156 179M199.333 179.667C199.278 179.722 199.222 180.778 199.667 180.333C199.722 180.278 199.778 179.222 199.333 179.667M284 179L284 189C285.346 185.793 285.346 182.207 284 179z"/>
<path style="fill:#fdc10a; stroke:none;" d="M298 179L299 180L298 179M328 179L329 180L328 179M341 179L342 180L341 179M52.3333 180.667C52.2778 180.722 52.2222 181.778 52.6667 181.333C52.7222 181.278 52.7778 180.222 52.3333 180.667z"/>
<path style="fill:#0bacc1; stroke:none;" d="M73 180L74 181L73 180z"/>
<path style="fill:#fdc10a; stroke:none;" d="M82 180L83 181L82 180M140 180L141 181L140 180M153 180L154 181L153 180M168 180L168 183C168.696 181.446 168.696 181.554 168 180M180 180L180 183C180.696 181.446 180.696 181.554 180 180M225 180L225 183C225.696 181.446 225.696 181.554 225 180z"/>
<path style="fill:#0bacc1; stroke:none;" d="M239 180L240 181L239 180M304 180L305 181L304 180M343 180L344 181L343 180z"/>
<path style="fill:#fdc10a; stroke:none;" d="M352 180L353 181L352 180M199 181L199 185C199.71 183.24 199.71 182.76 199 181M237 181L238 182L237 181z"/>
<path style="fill:#0bacc1; stroke:none;" d="M297 181L298 182L297 181z"/>
<path style="fill:#fdc10a; stroke:none;" d="M322 181L322 193C323.512 189.396 323.512 184.604 322 181M342 181L343 182L342 181M6 182L7 183L6 182M25 182L26 183L25 182M70 182L71 183L70 182M163 182L164 183L163 182M340 182L341 183L340 182M57 183L58 184L57 183M80 183L81 184L80 183z"/>
<path style="fill:#0bacc1; stroke:none;" d="M153 183L154 184L153 183M168 183L168 191C169.161 188.23 169.161 185.77 168 183z"/>
<path style="fill:#fdc10a; stroke:none;" d="M217 183L218 184L217 183z"/>
<path style="fill:#0bacc1; stroke:none;" d="M218.667 183.333C218.222 183.778 219.278 183.722 219.333 183.667C219.778 183.222 218.722 183.278 218.667 183.333z"/>
<path style="fill:#fdc10a; stroke:none;" d="M327 183L328 184L327 183M350 183L351 184L350 183M139.333 184.667C139.278 184.722 139.222 185.778 139.667 185.333C139.722 185.278 139.778 184.222 139.333 184.667z"/>
<path style="fill:#0bacc1; stroke:none;" d="M152 184L153 185L152 184z"/>
<path style="fill:#fdc10a; stroke:none;" d="M248 184L248 187C248.696 185.446 248.696 185.554 248 184z"/>
<path style="fill:#0bacc1; stroke:none;" d="M161 185L162 186L161 185z"/>
<path style="fill:#fdc10a; stroke:none;" d="M221 185L222 186L221 185M246 185L247 186L246 185z"/>
<path style="fill:#0bacc1; stroke:none;" d="M302 185L303 186L302 185M7 186L8 187L7 186M51 186L51 189C51.6961 187.446 51.6961 187.554 51 186M78 186L79 187L78 186M119 186L120 187L119 186M130 186L131 187L130 186M139 186L139 191C139.83 188.969 139.83 188.031 139 186z"/>
<path style="fill:#fdc10a; stroke:none;" d="M214 186L215 187L214 186z"/>
<path style="fill:#0bacc1; stroke:none;" d="M221.333 186.667C221.278 186.722 221.222 187.778 221.667 187.333C221.722 187.278 221.778 186.222 221.333 186.667z"/>
<path style="fill:#fdc10a; stroke:none;" d="M226 186L227 187L226 186z"/>
<path style="fill:#0bacc1; stroke:none;" d="M348 186L349 187L348 186z"/>
<path style="fill:#fdc10a; stroke:none;" d="M7 187L8 188L7 187z"/>
<path style="fill:#0bacc1; stroke:none;" d="M24 187L25 188L24 187z"/>
<path style="fill:#fdc10a; stroke:none;" d="M32.3333 187.667C32.2777 187.722 32.2223 188.778 32.6667 188.333C32.7222 188.278 32.7778 187.222 32.3333 187.667M120 187L121 188L120 187M131 187L132 188L131 187z"/>
<path style="fill:#0bacc1; stroke:none;" d="M248 187L248 190C248.696 188.446 248.696 188.554 248 187z"/>
<path style="fill:#fdc10a; stroke:none;" d="M24 188L25 189L24 188z"/>
<path style="fill:#0bacc1; stroke:none;" d="M97 188L97 195C98.0595 192.466 98.0595 190.534 97 188z"/>
<path style="fill:#fdc10a; stroke:none;" d="M121 188L122 189L121 188M159 188L160 189L159 188M200 188L201 189L200 188M213 188L214 189L213 188z"/>
<path style="fill:#0bacc1; stroke:none;" d="M227 188L228 189L227 188z"/>
<path style="fill:#fdc10a; stroke:none;" d="M301 188L302 189L301 188z"/>
<path style="fill:#0bacc1; stroke:none;" d="M76 189L77 190L76 189z"/>
<path style="fill:#fdc10a; stroke:none;" d="M346 189L347 190L346 189M367 189L367 197C368.161 194.23 368.161 191.77 367 189z"/>
<path style="fill:#0bacc1; stroke:none;" d="M8 190L9 191L8 190z"/>
<path style="fill:#fdc10a; stroke:none;" d="M104 190L104 193C104.696 191.446 104.696 191.554 104 190z"/>
<path style="fill:#0bacc1; stroke:none;" d="M133 190L134 191L133 190z"/>
<path style="fill:#fdc10a; stroke:none;" d="M186 190L187 191L186 190z"/>
<path style="fill:#0bacc1; stroke:none;" d="M220 190L221 191L220 190z"/>
<path style="fill:#fdc10a; stroke:none;" d="M228 190L229 191L228 190z"/>
<path style="fill:#fefefe; stroke:none;" d="M457 191L456 230C466.442 231.406 476.415 235.158 487 236C487 220.455 484.958 205.251 482 190C473.305 191.988 465.847 192.118 457 191z"/>
<path style="fill:#fdc10a; stroke:none;" d="M8 191L9 192L8 191z"/>
<path style="fill:#0bacc1; stroke:none;" d="M57 191L58 192L57 191z"/>
<path style="fill:#fdc10a; stroke:none;" d="M157 191L158 192L157 191M168 191L168 194C168.696 192.446 168.696 192.554 168 191M242 191L243 192L242 191M261 191L261 194C261.696 192.446 261.696 192.554 261 191z"/>
<path style="fill:#0bacc1; stroke:none;" d="M300 191L301 192L300 191M327 191L328 192L327 191M33 192L34 193L33 192z"/>
<path style="fill:#fdc10a; stroke:none;" d="M57 192L58 193L57 192M74 192L75 193L74 192M202 192L203 193L202 192z"/>
<path style="fill:#0bacc1; stroke:none;" d="M241 192L242 193L241 192z"/>
<path style="fill:#fdc10a; stroke:none;" d="M310 192L311 193L310 192M327 192L328 193L327 192M344 192L345 193L344 192z"/>
<path style="fill:#0bacc1; stroke:none;" d="M23 193L24 194L23 193z"/>
<path style="fill:#fdc10a; stroke:none;" d="M33 193L34 194L33 193z"/>
<path style="fill:#0bacc1; stroke:none;" d="M50 193L50 196C50.6961 194.446 50.6961 194.554 50 193M73 193L74 194L73 193z"/>
<path style="fill:#fdc10a; stroke:none;" d="M187 193L188 194L187 193M240 193L241 194L240 193z"/>
<path style="fill:#0bacc1; stroke:none;" d="M343 193L344 194L343 193z"/>
<path style="fill:#fdc10a; stroke:none;" d="M9 194L10 195L9 194M23 194L24 195L23 194M86 194L86 197C86.6961 195.446 86.6961 195.554 86 194M140 194L141 195L140 194z"/>
<path style="fill:#0bacc1; stroke:none;" d="M218 194L219 195L218 194z"/>
<path style="fill:#fdc10a; stroke:none;" d="M232 194L233 195L232 194z"/>
<path style="fill:#0bacc1; stroke:none;" d="M238 194L239 195L238 194z"/>
<path style="fill:#fdc10a; stroke:none;" d="M285 194L286 195L285 194z"/>
<path style="fill:#0bacc1; stroke:none;" d="M299 194L300 195L299 194z"/>
<path style="fill:#fdc10a; stroke:none;" d="M97.3333 195.667C97.2778 195.722 97.2222 196.778 97.6667 196.333C97.7223 196.278 97.7777 195.222 97.3333 195.667M154 195L155 196L154 195z"/>
<path style="fill:#0bacc1; stroke:none;" d="M188 195L189 196L188 195M205.667 195.333C205.222 195.778 206.278 195.722 206.333 195.667C206.778 195.222 205.722 195.278 205.667 195.333z"/>
<path style="fill:#fdc10a; stroke:none;" d="M247 195L247 198C247.696 196.446 247.696 196.554 247 195M299 195L300 196L299 195M59 196L60 197L59 196z"/>
<path style="fill:#0bacc1; stroke:none;" d="M129 196L130 197L129 196z"/>
<path style="fill:#fdc10a; stroke:none;" d="M153 196L154 197L153 196M217 196L218 197L217 196M311 196L312 197L311 196M329 196L330 197L329 196M356 196L357 197L356 196z"/>
<path style="fill:#0bacc1; stroke:none;" d="M10 197L11 198L10 197M34 197L35 198L34 197z"/>
<path style="fill:#fdc10a; stroke:none;" d="M60 197L61 198L60 197M189 197L190 198L189 197z"/>
<path style="fill:#0bacc1; stroke:none;" d="M286 197L287 198L286 197M330 197L331 198L330 197z"/>
<path style="fill:#fdc10a; stroke:none;" d="M68 198L69 199L68 198z"/>
<path style="fill:#0bacc1; stroke:none;" d="M150 198L151 199L150 198M169 198L170 199L169 198M298 198L299 199L298 198z"/>
<path style="fill:#fdc10a; stroke:none;" d="M323 198L323 201C323.696 199.446 323.696 199.554 323 198M338 198L339 199L338 198z"/>
<path style="fill:#0bacc1; stroke:none;" d="M11 199L12 200L11 199z"/>
<path style="fill:#fdc10a; stroke:none;" d="M22 199L23 200L22 199M87 199L88 200L87 199M105 199L106 200L105 199z"/>
<path style="fill:#0bacc1; stroke:none;" d="M287 199L288 200L287 199M312 199L313 200L312 199z"/>
<path style="fill:#fdc10a; stroke:none;" d="M357 199L358 200L357 199M35 200L36 201L35 200M96 200L97 201L96 200M170 200L171 201L170 200z"/>
<path style="fill:#0bacc1; stroke:none;" d="M297 200L298 201L297 200z"/>
<path style="fill:#fdc10a; stroke:none;" d="M366 200L367 201L366 200M21 201L22 202L21 201M49 201L50 202L49 201z"/>
<path style="fill:#0bacc1; stroke:none;" d="M171 201L172 202L171 201M212 201L213 202L212 201z"/>
<path style="fill:#fdc10a; stroke:none;" d="M260 201L260 204C260.696 202.446 260.696 202.554 260 201z"/>
<path style="fill:#0bacc1; stroke:none;" d="M313 201L314 202L313 201z"/>
<path style="fill:#fdc10a; stroke:none;" d="M20 202L21 203L20 202M90 202L91 203L90 202M94 202L95 203L94 202z"/>
<path style="fill:#0bacc1; stroke:none;" d="M176 202L177 203L176 202M194 202L195 203L194 202M295 202L296 203L295 202M322 202L323 203L322 202z"/>
<path style="fill:#fdc10a; stroke:none;" d="M360 202L361 203L360 202M364 202L365 203L364 202M16 203C17.2483 203.685 17.5485 203.749 19 204C17.7516 203.315 17.4516 203.251 16 203M209 203L210 204L209 203M246 203L246 206C246.696 204.446 246.696 204.554 246 203M47 204L48 205L47 204M110.667 204.333C110.222 204.778 111.278 204.722 111.333 204.667C111.778 204.222 110.722 204.278 110.667 204.333M198 204L199 205L198 204z"/>
<path style="fill:#0bacc1; stroke:none;" d="M206 204L207 205L206 204z"/>
<path style="fill:#fdc10a; stroke:none;" d="M280 205L280 208C280.696 206.446 280.696 206.554 280 205z"/>
<path style="fill:#0bacc1; stroke:none;" d="M259 207L260 208L259 207z"/>
<path style="fill:#fdc10a; stroke:none;" d="M266.333 207.667C266.278 207.722 266.222 208.778 266.667 208.333C266.722 208.278 266.778 207.222 266.333 207.667M259 208L260 209L259 208M245 209L246 210L245 209z"/>
<path style="fill:#0bacc1; stroke:none;" d="M266 209L266 212C266.696 210.446 266.696 210.554 266 209M258 211L259 212L258 211M244 212L245 213L244 212M260.667 213.333C260.222 213.778 261.278 213.722 261.333 213.667C261.778 213.222 260.722 213.278 260.667 213.333z"/>
<path style="fill:#fdc10a; stroke:none;" d="M262 213L263 214L262 213M243 214L244 215L243 214z"/>
<path style="fill:#0bacc1; stroke:none;" d="M257 214L257 216C258.635 215.455 258.455 215.635 259 214L257 214z"/>
<path style="fill:#fdc10a; stroke:none;" d="M279 214L280 215L279 214z"/>
<path style="fill:#0bacc1; stroke:none;" d="M263 215L264 216L263 215M236 216L237 217L236 216M242 216L243 217L242 216M237 217L238 218L237 217z"/>
<path style="fill:#fdc10a; stroke:none;" d="M241 217L242 218L241 217M265 217L266 218L265 217M230 218L231 219L230 218M239 218L240 219L239 218M278 219L279 220L278 219z"/>
<path style="fill:#0bacc1; stroke:none;" d="M254 221L254 226C254.83 223.969 254.83 223.03 254 221M264 221L265 222L264 221M230 222L231 223L230 222z"/>
<path style="fill:#fdc10a; stroke:none;" d="M253 222L254 223L253 222M277 222L278 223L277 222M262.667 223.333C262.222 223.778 263.278 223.722 263.333 223.667C263.778 223.222 262.722 223.278 262.667 223.333M254 226L255 227L254 226M248 227L249 228L248 227z"/>
<path style="fill:#0bacc1; stroke:none;" d="M246 228L247 229L246 228M238 229L239 230L238 229M243 229L244 230L243 229z"/>
<path style="fill:#fdc10a; stroke:none;" d="M244 229L245 230L244 229M272 231L273 232L272 231M257 232L258 233L257 232M271 232L272 233L271 232M258 233L259 234L258 233z"/>
<path style="fill:#0bacc1; stroke:none;" d="M268 234L269 235L268 234M262 235C263.506 235.683 264.315 235.826 266 236C264.494 235.317 263.685 235.174 262 235z"/>
<path style="fill:#fefefe; stroke:none;" d="M454 236C451.932 243.342 450.265 250.85 447.575 258C445.382 263.83 442.117 269.181 440 275C453.957 283.154 466.731 288.056 483 286C484.139 271.573 487 257.55 487 243C475.485 242.504 465.155 237.896 454 236z"/>
<path style="fill:#2c2c2a; stroke:none;" d="M68 241L68 276L76 276L76 264C79.9455 264 84.3486 264.464 87.956 262.543C94.6451 258.982 95.6462 249.297 89.8665 244.433C84.2588 239.714 74.7954 241 68 241z"/>
<path style="fill:#0bacc1; stroke:none;" d="M82.6667 241.333C82.2222 241.778 83.2778 241.722 83.3333 241.667C83.7778 241.222 82.7222 241.278 82.6667 241.333z"/>
<path style="fill:#fdc10a; stroke:none;" d="M84 241L85 242L84 241z"/>
<path style="fill:#2c2c2a; stroke:none;" d="M109 241L109 276L117 276L117 263C123.089 264.802 123.202 270.655 127.61 274.397C130.128 276.535 133.927 275.998 137 276C134.69 271.057 131.929 265.81 128 262C129.507 260.405 131.135 258.869 132.282 256.975C133.21 255.445 133.759 253.792 133.847 252C134.482 239.061 117.347 241 109 241M150 241L150 247L165 247C160.287 256.475 149.597 265.075 149 276L175 276L175 270L159 270C164.744 261.488 174.863 251.465 176 241L150 241z"/>
<path style="fill:#fdc10a; stroke:none;" d="M187 241L188 242L187 241z"/>
<path style="fill:#2c2c2a; stroke:none;" d="M188 241C190.5 248.901 196.755 255.161 199.301 263C200.611 267.036 200 271.809 200 276L208 276C208 271.814 207.396 267.072 208.498 263C210.618 255.176 216.797 248.432 220 241C209.457 241.037 207.65 248.22 204 257C199.363 248.853 198.809 241.098 188 241z"/>
<path style="fill:#0bacc1; stroke:none;" d="M195 241L196 242L195 241z"/>
<path style="fill:#fdc10a; stroke:none;" d="M242 241L243 242L242 241z"/>
<path style="fill:#2c2c2a; stroke:none;" d="M260 258L249 258L249 264L254 264C253.022 270.135 246.978 271.675 242.214 267.566C238.393 264.271 237.07 258.559 239.318 254.005C244.922 242.648 255.397 253.934 261 245C255.17 241.686 248.672 239.784 242 241.8C231.118 245.088 226.838 258.401 232.533 267.96C236.532 274.672 253.446 281.119 258.972 272.606C261.307 269.009 260 262.128 260 258z"/>
<path style="fill:#0bacc1; stroke:none;" d="M253 241L254 242L253 241z"/>
<path style="fill:#fdc10a; stroke:none;" d="M287 241L288 242L287 241z"/>
<path style="fill:#2c2c2a; stroke:none;" d="M288 241.533C276.257 244.387 271.904 259.525 278.652 268.985C283.023 275.112 290.808 277.177 298 275.61C309.602 273.082 314.239 258.683 308.157 249.004C303.884 242.204 295.627 239.68 288 241.533z"/>
<path style="fill:#fdc10a; stroke:none;" d="M298 241L299 242L298 241z"/>
<path style="fill:#2c2c2a; stroke:none;" d="M327 241L327 276C334.388 276 343.282 277.286 349.96 273.442C360.833 267.184 360.357 250.383 349.996 244.005C343.274 239.867 334.53 241 327 241z"/>
<path style="fill:#0bacc1; stroke:none;" d="M343 241L344 242L343 241z"/>
<path style="fill:#fdc10a; stroke:none;" d="M344 241L345 242L344 241z"/>
<path style="fill:#2c2c2a; stroke:none;" d="M369 276C371.359 275.992 374.439 276.399 376.491 274.972C380.573 272.133 379.92 268.175 386 268.024C392.665 267.859 391.884 271.97 396.417 274.972C398.305 276.223 400.85 275.975 403 276C401.278 265.994 396.371 254.188 391.895 245.059C390.36 241.929 386.894 239.93 383.419 241.604C380.419 243.049 379.495 248.159 378.424 251C375.283 259.326 371.852 267.571 369 276z"/>
<path style="fill:#fdc10a; stroke:none;" d="M390 241L391 242L390 241M87 242L88 243L87 242M128 242L129 243L128 242M219 242L220 243L219 242M239 242L240 243L239 242M256 242L257 243L256 242z"/>
<path style="fill:#0bacc1; stroke:none;" d="M347 242L348 243L347 242z"/>
<path style="fill:#fdc10a; stroke:none;" d="M89 243L90 244L89 243M258 243L259 244L258 243z"/>
<path style="fill:#0bacc1; stroke:none;" d="M349 243L350 244L349 243M90 244L91 245L90 244z"/>
<path style="fill:#fdc10a; stroke:none;" d="M131 244L132 245L131 244z"/>
<path style="fill:#0bacc1; stroke:none;" d="M236 244L237 245L236 244z"/>
<path style="fill:#fdc10a; stroke:none;" d="M304 244L305 245L304 244z"/>
<path style="fill:#0bacc1; stroke:none;" d="M91 245L92 246L91 245z"/>
<path style="fill:#fdc10a; stroke:none;" d="M175 245L176 246L175 245M280 245L281 246L280 245z"/>
<path style="fill:#0bacc1; stroke:none;" d="M305 245L306 246L305 245z"/>
<path style="fill:#fdc10a; stroke:none;" d="M352 245L353 246L352 245M380 245L381 246L380 245z"/>
<path style="fill:#0bacc1; stroke:none;" d="M190 246L191 247L190 246z"/>
<path style="fill:#fdc10a; stroke:none;" d="M279 246L280 247L279 246z"/>
<path style="fill:#0bacc1; stroke:none;" d="M306 246L307 247L306 246M353 246L354 247L353 246z"/>
<path style="fill:#fdc10a; stroke:none;" d="M392 246L393 247L392 246z"/>
<path style="fill:#fefefe; stroke:none;" d="M76 247L76 258C78.3851 257.978 81.4324 258.304 83.4853 256.821C90.6935 251.613 80.404 247.107 76 247z"/>
<path style="fill:#0bacc1; stroke:none;" d="M82 247L83 248L82 247z"/>
<path style="fill:#fefefe; stroke:none;" d="M117 247L117 257C118.881 256.978 121.087 257.187 122.856 256.397C125.715 255.119 126.792 251.15 124.396 248.858C122.491 247.037 119.435 247.113 117 247z"/>
<path style="fill:#fdc10a; stroke:none;" d="M122 247L123 248L122 247M133 247L134 248L133 247M150 247C154.471 248.876 160.183 248 165 248C160.529 246.124 154.817 247 150 247z"/>
<path style="fill:#0bacc1; stroke:none;" d="M216 247L217 248L216 247M233 247L234 248L233 247z"/>
<path style="fill:#fdc10a; stroke:none;" d="M246 247C247.506 247.683 248.315 247.826 250 248C248.494 247.317 247.685 247.174 246 247z"/>
<path style="fill:#0bacc1; stroke:none;" d="M259 247L260 248L259 247z"/>
<path style="fill:#fdc10a; stroke:none;" d="M291 247C292.506 247.683 293.315 247.826 295 248C293.494 247.317 292.685 247.174 291 247M307 247L308 248L307 247M335 247C337.332 247.985 339.457 247.981 342 248C339.668 247.015 337.543 247.019 335 247z"/>
<path style="fill:#0bacc1; stroke:none;" d="M342 247L343 248L342 247z"/>
<path style="fill:#fdc10a; stroke:none;" d="M354 247L355 248L354 247z"/>
<path style="fill:#0bacc1; stroke:none;" d="M173 248L174 249L173 248z"/>
<path style="fill:#fdc10a; stroke:none;" d="M191 248L192 249L191 248M243 248L244 249L243 248M288 248L289 249L288 248z"/>
<path style="fill:#fefefe; stroke:none;" d="M289.044 248.742C278.459 253.037 284.4 273.32 296.956 268.397C308.422 263.9 301.543 243.671 289.044 248.742z"/>
<path style="fill:#fdc10a; stroke:none;" d="M297 248L298 249L297 248z"/>
<path style="fill:#fefefe; stroke:none;" d="M335 248L335 270C338.778 269.968 342.759 270.017 345.856 267.486C350.958 263.317 351.403 253.626 345.867 249.603C342.834 247.4 338.536 248 335 248z"/>
<path style="fill:#0bacc1; stroke:none;" d="M379 248L380 249L379 248z"/>
<path style="fill:#fdc10a; stroke:none;" d="M93 249L94 250L93 249z"/>
<path style="fill:#0bacc1; stroke:none;" d="M207 249L208 250L207 249z"/>
<path style="fill:#fdc10a; stroke:none;" d="M215 249L216 250L215 249M277 249L278 250L277 249z"/>
<path style="fill:#0bacc1; stroke:none;" d="M346 249L347 250L346 249z"/>
<path style="fill:#fefefe; stroke:none;" d="M386 249L382 263L391 263C389.733 258.36 388.292 253.217 386 249z"/>
<path style="fill:#0bacc1; stroke:none;" d="M393 249L394 250L393 249z"/>
<path style="fill:#fdc10a; stroke:none;" d="M85 250L86 251L85 250z"/>
<path style="fill:#0bacc1; stroke:none;" d="M163 250L164 251L163 250z"/>
<path style="fill:#fdc10a; stroke:none;" d="M231 250L232 251L231 250z"/>
<path style="fill:#0bacc1; stroke:none;" d="M347 250L348 251L347 250z"/>
<path style="fill:#fdc10a; stroke:none;" d="M171 251L172 252L171 251z"/>
<path style="fill:#0bacc1; stroke:none;" d="M206 251L207 252L206 251z"/>
<path style="fill:#fdc10a; stroke:none;" d="M276 251L277 252L276 251z"/>
<path style="fill:#0bacc1; stroke:none;" d="M309 251L310 252L309 251z"/>
<path style="fill:#fdc10a; stroke:none;" d="M385 251L386 252L385 251z"/>
<path style="fill:#0bacc1; stroke:none;" d="M201 252L202 253L201 252z"/>
<path style="fill:#fdc10a; stroke:none;" d="M239 252L240 253L239 252M301 252L302 253L301 252M387 252L388 253L387 252z"/>
<path style="fill:#0bacc1; stroke:none;" d="M194 253L195 254L194 253z"/>
<path style="fill:#fdc10a; stroke:none;" d="M205 253L206 254L205 253M230 253L231 254L230 253M357 253L358 254L357 253M377 253L378 254L377 253M85 254L86 255L85 254M169 254L170 255L169 254z"/>
<path style="fill:#0bacc1; stroke:none;" d="M202 254L203 255L202 254z"/>
<path style="fill:#fdc10a; stroke:none;" d="M212 254L213 255L212 254M310 254L311 255L310 254z"/>
<path style="fill:#0bacc1; stroke:none;" d="M349 254L350 255L349 254z"/>
<path style="fill:#fdc10a; stroke:none;" d="M384 254L385 255L384 254M395 254L396 255L395 254z"/>
<path style="fill:#0bacc1; stroke:none;" d="M93 255L94 256L93 255z"/>
<path style="fill:#fdc10a; stroke:none;" d="M133 255L134 256L133 255M195 255L196 256L195 255M204 255L205 256L204 255M238 255L239 256L238 255z"/>
<path style="fill:#0bacc1; stroke:none;" d="M275.333 255.667C275.278 255.722 275.222 256.778 275.667 256.333C275.722 256.278 275.778 255.222 275.333 255.667M283.333 255.667C283.278 255.722 283.222 256.778 283.667 256.333C283.722 256.278 283.778 255.222 283.333 255.667M302 255L303 256L302 255z"/>
<path style="fill:#fdc10a; stroke:none;" d="M388 255L389 256L388 255M203 256L204 257L203 256M211 256L212 257L211 256z"/>
<path style="fill:#0bacc1; stroke:none;" d="M376 256L377 257L376 256z"/>
<path style="fill:#fdc10a; stroke:none;" d="M83 257L84 258L83 257M117 257C118.769 257.779 120.036 257.912 122 258C120.231 257.221 118.964 257.088 117 257M132 257L133 258L132 257M158 257L159 258L158 257M283 257L283 261C283.71 259.241 283.71 258.759 283 257M383 257L384 258L383 257z"/>
<path style="fill:#0bacc1; stroke:none;" d="M396 257L397 258L396 257z"/>
<path style="fill:#fdc10a; stroke:none;" d="M92 258L93 259L92 258z"/>
<path style="fill:#0bacc1; stroke:none;" d="M131 258L132 259L131 258M248 258L248 263C248.83 260.969 248.83 260.03 248 258M260 258L260 273C261.74 268.852 261.74 262.148 260 258z"/>
<path style="fill:#fdc10a; stroke:none;" d="M375 258L376 259L375 258M389 258L390 259L389 258z"/>
<path style="fill:#0bacc1; stroke:none;" d="M130 259L131 260L130 259z"/>
<path style="fill:#fdc10a; stroke:none;" d="M397 259L398 260L397 259M156 260L157 261L156 260z"/>
<path style="fill:#0bacc1; stroke:none;" d="M198 260L199 261L198 260z"/>
<path style="fill:#fdc10a; stroke:none;" d="M382 260L383 261L382 260z"/>
<path style="fill:#0bacc1; stroke:none;" d="M164 261L165 262L164 261z"/>
<path style="fill:#fdc10a; stroke:none;" d="M208 261L209 262L208 261M238 261L239 262L238 261M275 261L276 262L275 261M302 261L303 262L302 261M349 261L350 262L349 261M374 261L375 262L374 261M88 262L89 263L88 262M199 262L200 263L199 262z"/>
<path style="fill:#0bacc1; stroke:none;" d="M238 262L239 263L238 262M310 262L311 263L310 262M349 262L350 263L349 262M398 262L399 263L398 262z"/>
<path style="fill:#fdc10a; stroke:none;" d="M86 263L87 264L86 263M120 263L121 264L120 263z"/>
<path style="fill:#0bacc1; stroke:none;" d="M154 263L155 264L154 263z"/>
<path style="fill:#fdc10a; stroke:none;" d="M230 263L231 264L230 263M357 263L358 264L357 263M76 264C78.3316 264.985 80.4566 264.981 83 265C80.6684 264.015 78.5433 264.019 76 264M121 264L122 265L121 264M162 264L163 265L162 264z"/>
<path style="fill:#0bacc1; stroke:none;" d="M253 264L253 269C253.83 266.969 253.83 266.031 253 264M284 264L285 265L284 264z"/>
<path style="fill:#fdc10a; stroke:none;" d="M301 264L302 265L301 264M276 265L277 266L276 265M122 266L123 267L122 266M131 266L132 267L131 266z"/>
<path style="fill:#0bacc1; stroke:none;" d="M152 266L153 267L152 266z"/>
<path style="fill:#fdc10a; stroke:none;" d="M240 266L241 267L240 266z"/>
<path style="fill:#0bacc1; stroke:none;" d="M300 266L301 267L300 266z"/>
<path style="fill:#fdc10a; stroke:none;" d="M347 266L348 267L347 266M356 266L357 267L356 266M372 266L373 267L372 266M160 267L161 268L160 267M241 267L242 268L241 267z"/>
<path style="fill:#0bacc1; stroke:none;" d="M277 267L278 268L277 267M299 267L300 268L299 267z"/>
<path style="fill:#fdc10a; stroke:none;" d="M346 267L347 268L346 267M400 267L401 268L400 267z"/>
<path style="fill:#0bacc1; stroke:none;" d="M242 268L243 269L242 268M345 268L346 269L345 268z"/>
<path style="fill:#fdc10a; stroke:none;" d="M233 269L234 270L233 269z"/>
<path style="fill:#0bacc1; stroke:none;" d="M244 269L245 270L244 269M252 269L253 270L252 269M290 269L291 270L290 269z"/>
<path style="fill:#fdc10a; stroke:none;" d="M291 269C292.506 269.683 293.315 269.826 295 270C293.494 269.317 292.685 269.174 291 269z"/>
<path style="fill:#0bacc1; stroke:none;" d="M295 269L296 270L295 269z"/>
<path style="fill:#fdc10a; stroke:none;" d="M307 269L308 270L307 269M342 269L343 270L342 269z"/>
<path style="fill:#0bacc1; stroke:none;" d="M354 269L355 270L354 269M371 269L372 270L371 269z"/>
<path style="fill:#fdc10a; stroke:none;" d="M379 269L380 270L379 269M149 270L150 271L149 270M279 270L280 271L279 270M393 270L394 271L393 270z"/>
<path style="fill:#0bacc1; stroke:none;" d="M401 270L402 271L401 270M125 271L126 272L125 271M134 271L135 272L134 271M280 271L281 272L280 271z"/>
<path style="fill:#fdc10a; stroke:none;" d="M236 272L237 273L236 272M281 272L282 273L281 272M351 272L352 273L351 272M378 272L379 273L378 272M402 272L403 273L402 272M126 273L127 274L126 273M259 273L260 274L259 273M303 273L304 274L303 273M394 273L395 274L394 273M239 274L240 275L239 274z"/>
<path style="fill:#0bacc1; stroke:none;" d="M257 274L258 275L257 274z"/>
<path style="fill:#fdc10a; stroke:none;" d="M284 274L285 275L284 274z"/>
<path style="fill:#0bacc1; stroke:none;" d="M301 274L302 275L301 274z"/>
<path style="fill:#fdc10a; stroke:none;" d="M369 274L370 275L369 274z"/>
<path style="fill:#0bacc1; stroke:none;" d="M242 275L243 276L242 275M287 275L288 276L287 275z"/>
<path style="fill:#fdc10a; stroke:none;" d="M299 275L300 276L299 275z"/>
<path style="fill:#0bacc1; stroke:none;" d="M344 275L345 276L344 275z"/>
<path style="fill:#fdc10a; stroke:none;" d="M345 275L346 276L345 275z"/>
<path style="fill:#0bacc1; stroke:none;" d="M403 275L404 276L403 275z"/>
<path style="fill:#fdc10a; stroke:none;" d="M246 276C247.769 276.779 249.036 276.912 251 277C249.231 276.221 247.964 276.088 246 276M290 276C292.052 276.874 293.747 276.953 296 277C293.948 276.126 292.253 276.047 290 276z"/>
<path style="fill:#0bacc1; stroke:none;" d="M161 305C176.702 300.468 189.604 290.725 207 292.174C245.368 295.368 279.473 317.459 318 318.96C333.75 319.574 349.771 314.664 364 308.424C374.382 303.87 391.174 296.07 397 286C388.596 287.26 380.744 292.217 373 295.576C355.874 303.004 337.06 310.772 318 309.961C282.125 308.434 251.444 284.059 215 284C199.901 283.976 185.585 286.967 172 293.759C167.212 296.153 160.088 298.84 161 305M182 325C194.035 324.05 205.993 323.216 218 325.321C229.801 327.389 241.001 331.958 253 333.075C260.615 333.783 273.601 336.056 278 328C270.613 325.755 262.572 325.65 255 323.986C238.792 320.425 223.725 315.994 207 316C198.823 316.003 186.687 317.337 182 325z"/>
</svg>
